<svg xmlns="http://www.w3.org/2000/svg" xmlns:xlink="http://www.w3.org/1999/xlink" contentStyleType="text/css" height="218px" preserveAspectRatio="none" style="width:919px;height:218px;background:#FFFFFF;" version="1.1" viewBox="0 0 919 218" width="919px" zoomAndPan="magnify"><title>Style declarations</title><defs/><g><text fill="#000000" font-family="sans-serif" font-size="14" font-weight="bold" lengthAdjust="spacing" textLength="127.791" x="394.4504" y="33.5352">Style declarations</text><rect fill="#F1F1F1" height="36.4883" rx="12.5" ry="12.5" style="stroke:#181818;stroke-width:1.5;" width="69.1367" x="424.2776" y="47.4883"/><text fill="#000000" font-family="sans-serif" font-size="14" lengthAdjust="spacing" textLength="49.1367" x="434.2776" y="71.0234">Default</text><rect fill="#F1F1F1" height="36.4883" rx="12.5" ry="12.5" style="stroke:#181818;stroke-width:1.5;" width="56.3945" x="109.6699" y="108.9766"/><text fill="#000000" font-family="sans-serif" font-size="14" lengthAdjust="spacing" textLength="36.3945" x="119.6699" y="132.5117">Actor</text><rect fill="#F1F1F1" height="36.4883" rx="12.5" ry="12.5" style="stroke:#181818;stroke-width:1.5;" width="65.6914" x="20" y="170.4648"/><text fill="#000000" font-family="sans-serif" font-size="14" lengthAdjust="spacing" textLength="45.6914" x="30" y="194">Person</text><path d="M137.8672,145.4648 L137.8672,148.4648 C137.8672,155.4648 52.8457,160.4648 52.8457,167.4648 L52.8457,170.4648 " fill="none" style="stroke:#181818;stroke-width:1.0;"/><rect fill="#F1F1F1" height="36.4883" rx="12.5" ry="12.5" style="stroke:#181818;stroke-width:1.5;" width="61.9453" x="105.6914" y="170.4648"/><text fill="#000000" font-family="sans-serif" font-size="14" lengthAdjust="spacing" textLength="41.9453" x="115.6914" y="194">Group</text><path d="M137.8672,145.4648 L137.8672,148.4648 C137.8672,155.4648 136.6641,160.4648 136.6641,167.4648 L136.6641,170.4648 " fill="none" style="stroke:#181818;stroke-width:1.0;"/><rect fill="#F1F1F1" height="36.4883" rx="12.5" ry="12.5" style="stroke:#181818;stroke-width:1.5;" width="68.0977" x="187.6367" y="170.4648"/><text fill="#000000" font-family="sans-serif" font-size="14" lengthAdjust="spacing" textLength="48.0977" x="197.6367" y="194">System</text><path d="M137.8672,145.4648 L137.8672,148.4648 C137.8672,155.4648 221.6855,160.4648 221.6855,167.4648 L221.6855,170.4648 " fill="none" style="stroke:#181818;stroke-width:1.0;"/><path d="M458.8459,83.9766 L458.8459,86.9766 C458.8459,93.9766 137.8672,98.9766 137.8672,105.9766 L137.8672,108.9766 " fill="none" style="stroke:#181818;stroke-width:1.0;"/><rect fill="#F1F1F1" height="36.4883" rx="12.5" ry="12.5" style="stroke:#181818;stroke-width:1.5;" width="64.1533" x="498.6001" y="108.9766"/><text fill="#000000" font-family="sans-serif" font-size="14" lengthAdjust="spacing" textLength="44.1533" x="508.6001" y="132.5117">Object</text><rect fill="#F1F1F1" height="36.4883" rx="12.5" ry="12.5" style="stroke:#181818;stroke-width:1.5;" width="89.7402" x="275.7344" y="170.4648"/><text fill="#000000" font-family="sans-serif" font-size="14" lengthAdjust="spacing" textLength="69.7402" x="285.7344" y="194">Document</text><path d="M530.6768,145.4648 L530.6768,148.4648 C530.6768,155.4648 320.6045,160.4648 320.6045,167.4648 L320.6045,170.4648 " fill="none" style="stroke:#181818;stroke-width:1.0;"/><rect fill="#F1F1F1" height="36.4883" rx="12.5" ry="12.5" style="stroke:#181818;stroke-width:1.5;" width="62.4922" x="385.4746" y="170.4648"/><text fill="#000000" font-family="sans-serif" font-size="14" lengthAdjust="spacing" textLength="42.4922" x="395.4746" y="194">Folder</text><path d="M530.6768,145.4648 L530.6768,148.4648 C530.6768,155.4648 416.7207,160.4648 416.7207,167.4648 L416.7207,170.4648 " fill="none" style="stroke:#181818;stroke-width:1.0;"/><rect fill="#F1F1F1" height="36.4883" rx="12.5" ry="12.5" style="stroke:#181818;stroke-width:1.5;" width="45.5117" x="467.9668" y="170.4648"/><text fill="#000000" font-family="sans-serif" font-size="14" lengthAdjust="spacing" textLength="25.5117" x="477.9668" y="194">Call</text><path d="M530.6768,145.4648 L530.6768,148.4648 C530.6768,155.4648 490.7227,160.4648 490.7227,167.4648 L490.7227,170.4648 " fill="none" style="stroke:#181818;stroke-width:1.0;"/><rect fill="#F1F1F1" height="36.4883" rx="12.5" ry="12.5" style="stroke:#181818;stroke-width:1.5;" width="56.4834" x="533.4785" y="170.4648"/><text fill="#000000" font-family="sans-serif" font-size="14" lengthAdjust="spacing" textLength="36.4834" x="543.4785" y="194">Email</text><path d="M530.6768,145.4648 L530.6768,148.4648 C530.6768,155.4648 561.7202,160.4648 561.7202,167.4648 L561.7202,170.4648 " fill="none" style="stroke:#181818;stroke-width:1.0;"/><rect fill="#F1F1F1" height="36.4883" rx="12.5" ry="12.5" style="stroke:#181818;stroke-width:1.5;" width="109.1885" x="609.9619" y="170.4648"/><text fill="#000000" font-family="sans-serif" font-size="14" lengthAdjust="spacing" textLength="89.1885" x="619.9619" y="194">Conversation</text><path d="M530.6768,145.4648 L530.6768,148.4648 C530.6768,155.4648 664.5562,160.4648 664.5562,167.4648 L664.5562,170.4648 " fill="none" style="stroke:#181818;stroke-width:1.0;"/><rect fill="#F1F1F1" height="36.4883" rx="12.5" ry="12.5" style="stroke:#181818;stroke-width:1.5;" width="46.4688" x="739.1504" y="170.4648"/><text fill="#000000" font-family="sans-serif" font-size="14" lengthAdjust="spacing" textLength="26.4688" x="749.1504" y="194">Info</text><path d="M530.6768,145.4648 L530.6768,148.4648 C530.6768,155.4648 762.3848,160.4648 762.3848,167.4648 L762.3848,170.4648 " fill="none" style="stroke:#181818;stroke-width:1.0;"/><path d="M458.8459,83.9766 L458.8459,86.9766 C458.8459,93.9766 530.6768,98.9766 530.6768,105.9766 L530.6768,108.9766 " fill="none" style="stroke:#181818;stroke-width:1.0;"/><rect fill="#F1F1F1" height="36.4883" rx="12.5" ry="12.5" style="stroke:#181818;stroke-width:1.5;" width="51.9785" x="582.7534" y="108.9766"/><text fill="#000000" font-family="sans-serif" font-size="14" lengthAdjust="spacing" textLength="31.9785" x="592.7534" y="132.5117">Note</text><path d="M458.8459,83.9766 L458.8459,86.9766 C458.8459,93.9766 608.7427,98.9766 608.7427,105.9766 L608.7427,108.9766 " fill="none" style="stroke:#181818;stroke-width:1.0;"/><rect fill="#F1F1F1" height="36.4883" rx="12.5" ry="12.5" style="stroke:#181818;stroke-width:1.5;" width="83.6152" x="654.7319" y="108.9766"/><text fill="#000000" font-family="sans-serif" font-size="14" lengthAdjust="spacing" textLength="63.6152" x="664.7319" y="132.5117">Boundary</text><path d="M458.8459,83.9766 L458.8459,86.9766 C458.8459,93.9766 696.5396,98.9766 696.5396,105.9766 L696.5396,108.9766 " fill="none" style="stroke:#181818;stroke-width:1.0;"/><rect fill="#F1F1F1" height="36.4883" rx="12.5" ry="12.5" style="stroke:#181818;stroke-width:1.5;" width="69.957" x="758.3472" y="108.9766"/><text fill="#000000" font-family="sans-serif" font-size="14" lengthAdjust="spacing" textLength="49.957" x="768.3472" y="132.5117">Activity</text><path d="M458.8459,83.9766 L458.8459,86.9766 C458.8459,93.9766 793.3257,98.9766 793.3257,105.9766 L793.3257,108.9766 " fill="none" style="stroke:#181818;stroke-width:1.0;"/><rect fill="#F1F1F1" height="36.4883" rx="12.5" ry="12.5" style="stroke:#181818;stroke-width:1.5;" width="49.3877" x="848.3042" y="108.9766"/><text fill="#000000" font-family="sans-serif" font-size="14" lengthAdjust="spacing" textLength="29.3877" x="858.3042" y="132.5117">Step</text><path d="M458.8459,83.9766 L458.8459,86.9766 C458.8459,93.9766 872.998,98.9766 872.998,105.9766 L872.998,108.9766 " fill="none" style="stroke:#181818;stroke-width:1.0;"/><!--SRC=[jLB1JkCm4BtxA-P66mb40L6KKvUs8BejhJR0VPgOo4lYYPn9L_bxxDGX2TizxYMPyNipzhmtivBHSAvqacCXc0fWWZqnKmw9CZ9cHLe8Lfn9YBYstqJ66HfqG2b400lvZbN68WZWHynaR130JfhI5fu5NG8ZnZILoRWXF1gg2eytyH2Ewf9bxl5ZqX7SAQ2k0Trz_KBOxd_RDpSj5XHNkTJicxJfy9u7oX9fFEMO30bpp38Fkt08BdDKBTh4tsf97-peZLHjZzxHaFoatycJN7XYsZzaFe2Q0GSpFnDBzx-dIYTewcD5cmserY1rKEmfRJQWH2mBCPDs8VnIYDd_tP5k6th6_yFAdcLVvdH6_ANvbwwdLEhBSNBkNOQQNpThS0sTNvEBgykhculfA4A6I1PmEON9TJYv2oTJc2-Z5t3uM8mUTsiegJAnLKALRDI-SkyPYnKU47vLcbKkGzWMKgyMFzi3MEg3CgIRILTlcuvmUtD-hzoLnZu5tZR2wsahOagKJaDuVNaulnDhr6c5gUsTI36taxAfGrWiFm40]--></g></svg>