<svg xmlns="http://www.w3.org/2000/svg" xmlns:xlink="http://www.w3.org/1999/xlink" contentStyleType="text/css" height="2000px" preserveAspectRatio="none" style="width:515px;height:2000px;background:#FFFFFF;" version="1.1" viewBox="0 0 515 2000" width="515px" zoomAndPan="magnify"><defs/><g><text fill="#000000" font-family="sans-serif" font-size="14" font-weight="bold" lengthAdjust="spacing" textLength="108.5889" x="10" y="23.5352">styleProperties</text><line style="stroke:#181818;stroke-width:1.5;" x1="64" x2="64" y1="49.7324" y2="49.7324"/><rect fill="none" height="26.4883" style="stroke:#181818;stroke-width:0.5;" width="59.1367" x="64" y="36.4883"/><text fill="#000000" font-family="sans-serif" font-size="14" lengthAdjust="spacing" textLength="49.1367" x="69" y="55.0234">Default</text><line style="stroke:#181818;stroke-width:1.5;" x1="123.1367" x2="143.1367" y1="49.7324" y2="49.7324"/><rect fill="#F1F1F1" height="26.4883" rx="5" ry="5" style="stroke:#181818;stroke-width:1.5;" width="126.0879" x="143.1367" y="36.4883"/><text fill="#000000" font-family="sans-serif" font-size="14" lengthAdjust="spacing" textLength="116.0879" x="148.1367" y="55.0234">defaultProperties</text><line style="stroke:#181818;stroke-width:1.5;" x1="40" x2="64" y1="49.7324" y2="49.7324"/><line style="stroke:#181818;stroke-width:1.5;" x1="269.2246" x2="470.9326" y1="49.7324" y2="49.7324"/><line style="stroke:#181818;stroke-width:1.5;" x1="64" x2="64" y1="102.2207" y2="102.2207"/><rect fill="#F1F1F1" height="26.4883" rx="5" ry="5" style="stroke:#181818;stroke-width:1.5;" width="51.6035" x="64" y="88.9766"/><text fill="#000000" font-family="sans-serif" font-size="14" lengthAdjust="spacing" textLength="41.6035" x="69" y="107.5117">actors</text><line style="stroke:#181818;stroke-width:1.5;" x1="115.6035" x2="135.6035" y1="102.2207" y2="102.2207"/><path d="M143.6035,94.2207 C143.6035,100.2207 141.6035,102.2207 135.6035,102.2207 " fill="none" style="stroke:#181818;stroke-width:1.5;"/><line style="stroke:#181818;stroke-width:1.5;" x1="143.6035" x2="143.6035" y1="85.9766" y2="94.2207"/><path d="M143.6035,85.9766 C143.6035,79.9766 145.6035,77.9766 151.6035,77.9766 " fill="none" style="stroke:#181818;stroke-width:1.5;"/><line style="stroke:#181818;stroke-width:1.5;" x1="151.6035" x2="234.8809" y1="77.9766" y2="77.9766"/><path d="M182.9145,77.9766 L182.9145,74.9766 L188.9145,77.9766 L182.9145,80.9766 L182.9145,77.9766 " fill="#181818" style="stroke:#181818;stroke-width:1.5;"/><path d="M242.8809,94.2207 C242.8809,100.2207 244.8809,102.2207 250.8809,102.2207 " fill="none" style="stroke:#181818;stroke-width:1.5;"/><line style="stroke:#181818;stroke-width:1.5;" x1="242.8809" x2="242.8809" y1="85.9766" y2="94.2207"/><path d="M234.8809,77.9766 C240.8809,77.9766 242.8809,79.9766 242.8809,85.9766 " fill="none" style="stroke:#181818;stroke-width:1.5;"/><line style="stroke:#181818;stroke-width:1.5;" x1="135.6035" x2="150.6035" y1="102.2207" y2="102.2207"/><line style="stroke:#181818;stroke-width:1.5;" x1="235.8809" x2="250.8809" y1="102.2207" y2="102.2207"/><rect fill="none" height="26.4883" style="stroke:#181818;stroke-width:1.0;stroke-dasharray:5.0,5.0;" width="85.2773" x="150.6035" y="88.9766"/><text fill="#000000" font-family="sans-serif" font-size="14" lengthAdjust="spacing" textLength="75.2773" x="155.6035" y="107.5117">TAG_NAME</text><line style="stroke:#181818;stroke-width:1.5;" x1="250.8809" x2="270.8809" y1="102.2207" y2="102.2207"/><rect fill="#F1F1F1" height="26.4883" rx="5" ry="5" style="stroke:#181818;stroke-width:1.5;" width="133.0674" x="270.8809" y="88.9766"/><text fill="#000000" font-family="sans-serif" font-size="14" lengthAdjust="spacing" textLength="123.0674" x="275.8809" y="107.5117">elementProperties</text><path d="M52,90.2207 C52,99.2207 55,102.2207 64,102.2207 " fill="none" style="stroke:#181818;stroke-width:1.5;"/><line style="stroke:#181818;stroke-width:1.5;" x1="403.9482" x2="446.9326" y1="102.2207" y2="102.2207"/><path d="M423.4404,102.2207 L423.4404,99.2207 L429.4404,102.2207 L423.4404,105.2207 L423.4404,102.2207 " fill="#181818" style="stroke:#181818;stroke-width:1.5;"/><path d="M458.9326,90.2207 C458.9326,99.2207 455.9326,102.2207 446.9326,102.2207 " fill="none" style="stroke:#181818;stroke-width:1.5;"/><line style="stroke:#181818;stroke-width:1.5;" x1="64" x2="64" y1="154.709" y2="154.709"/><rect fill="#F1F1F1" height="26.4883" rx="5" ry="5" style="stroke:#181818;stroke-width:1.5;" width="94.5879" x="64" y="141.4648"/><text fill="#000000" font-family="sans-serif" font-size="14" lengthAdjust="spacing" textLength="84.5879" x="69" y="160">workObjects</text><line style="stroke:#181818;stroke-width:1.5;" x1="158.5879" x2="178.5879" y1="154.709" y2="154.709"/><path d="M186.5879,146.709 C186.5879,152.709 184.5879,154.709 178.5879,154.709 " fill="none" style="stroke:#181818;stroke-width:1.5;"/><line style="stroke:#181818;stroke-width:1.5;" x1="186.5879" x2="186.5879" y1="138.4648" y2="146.709"/><path d="M186.5879,138.4648 C186.5879,132.4648 188.5879,130.4648 194.5879,130.4648 " fill="none" style="stroke:#181818;stroke-width:1.5;"/><line style="stroke:#181818;stroke-width:1.5;" x1="194.5879" x2="277.8652" y1="130.4648" y2="130.4648"/><path d="M225.8988,130.4648 L225.8988,127.4648 L231.8988,130.4648 L225.8988,133.4648 L225.8988,130.4648 " fill="#181818" style="stroke:#181818;stroke-width:1.5;"/><path d="M285.8652,146.709 C285.8652,152.709 287.8652,154.709 293.8652,154.709 " fill="none" style="stroke:#181818;stroke-width:1.5;"/><line style="stroke:#181818;stroke-width:1.5;" x1="285.8652" x2="285.8652" y1="138.4648" y2="146.709"/><path d="M277.8652,130.4648 C283.8652,130.4648 285.8652,132.4648 285.8652,138.4648 " fill="none" style="stroke:#181818;stroke-width:1.5;"/><line style="stroke:#181818;stroke-width:1.5;" x1="178.5879" x2="193.5879" y1="154.709" y2="154.709"/><line style="stroke:#181818;stroke-width:1.5;" x1="278.8652" x2="293.8652" y1="154.709" y2="154.709"/><rect fill="none" height="26.4883" style="stroke:#181818;stroke-width:1.0;stroke-dasharray:5.0,5.0;" width="85.2773" x="193.5879" y="141.4648"/><text fill="#000000" font-family="sans-serif" font-size="14" lengthAdjust="spacing" textLength="75.2773" x="198.5879" y="160">TAG_NAME</text><line style="stroke:#181818;stroke-width:1.5;" x1="293.8652" x2="313.8652" y1="154.709" y2="154.709"/><rect fill="#F1F1F1" height="26.4883" rx="5" ry="5" style="stroke:#181818;stroke-width:1.5;" width="133.0674" x="313.8652" y="141.4648"/><text fill="#000000" font-family="sans-serif" font-size="14" lengthAdjust="spacing" textLength="123.0674" x="318.8652" y="160">elementProperties</text><path d="M52,142.709 C52,151.709 55,154.709 64,154.709 " fill="none" style="stroke:#181818;stroke-width:1.5;"/><line style="stroke:#181818;stroke-width:1.5;" x1="446.9326" x2="446.9326" y1="154.709" y2="154.709"/><path d="M458.9326,142.709 C458.9326,151.709 455.9326,154.709 446.9326,154.709 " fill="none" style="stroke:#181818;stroke-width:1.5;"/><line style="stroke:#181818;stroke-width:1.5;" x1="64" x2="64" y1="207.1973" y2="207.1973"/><rect fill="none" height="26.4883" style="stroke:#181818;stroke-width:0.5;" width="73.6152" x="64" y="193.9531"/><text fill="#000000" font-family="sans-serif" font-size="14" lengthAdjust="spacing" textLength="63.6152" x="69" y="212.4883">Boundary</text><line style="stroke:#181818;stroke-width:1.5;" x1="137.6152" x2="157.6152" y1="207.1973" y2="207.1973"/><path d="M165.6152,199.1973 C165.6152,205.1973 163.6152,207.1973 157.6152,207.1973 " fill="none" style="stroke:#181818;stroke-width:1.5;"/><line style="stroke:#181818;stroke-width:1.5;" x1="165.6152" x2="165.6152" y1="190.9531" y2="199.1973"/><path d="M165.6152,190.9531 C165.6152,184.9531 167.6152,182.9531 173.6152,182.9531 " fill="none" style="stroke:#181818;stroke-width:1.5;"/><line style="stroke:#181818;stroke-width:1.5;" x1="173.6152" x2="256.8926" y1="182.9531" y2="182.9531"/><path d="M204.9262,182.9531 L204.9262,179.9531 L210.9262,182.9531 L204.9262,185.9531 L204.9262,182.9531 " fill="#181818" style="stroke:#181818;stroke-width:1.5;"/><path d="M264.8926,199.1973 C264.8926,205.1973 266.8926,207.1973 272.8926,207.1973 " fill="none" style="stroke:#181818;stroke-width:1.5;"/><line style="stroke:#181818;stroke-width:1.5;" x1="264.8926" x2="264.8926" y1="190.9531" y2="199.1973"/><path d="M256.8926,182.9531 C262.8926,182.9531 264.8926,184.9531 264.8926,190.9531 " fill="none" style="stroke:#181818;stroke-width:1.5;"/><line style="stroke:#181818;stroke-width:1.5;" x1="157.6152" x2="172.6152" y1="207.1973" y2="207.1973"/><line style="stroke:#181818;stroke-width:1.5;" x1="257.8926" x2="272.8926" y1="207.1973" y2="207.1973"/><rect fill="none" height="26.4883" style="stroke:#181818;stroke-width:1.0;stroke-dasharray:5.0,5.0;" width="85.2773" x="172.6152" y="193.9531"/><text fill="#000000" font-family="sans-serif" font-size="14" lengthAdjust="spacing" textLength="75.2773" x="177.6152" y="212.4883">TAG_NAME</text><line style="stroke:#181818;stroke-width:1.5;" x1="272.8926" x2="292.8926" y1="207.1973" y2="207.1973"/><rect fill="#F1F1F1" height="26.4883" rx="5" ry="5" style="stroke:#181818;stroke-width:1.5;" width="143" x="292.8926" y="193.9531"/><text fill="#000000" font-family="sans-serif" font-size="14" lengthAdjust="spacing" textLength="133" x="297.8926" y="212.4883">boundaryProperties</text><path d="M52,195.1973 C52,204.1973 55,207.1973 64,207.1973 " fill="none" style="stroke:#181818;stroke-width:1.5;"/><line style="stroke:#181818;stroke-width:1.5;" x1="435.8926" x2="446.9326" y1="207.1973" y2="207.1973"/><path d="M458.9326,195.1973 C458.9326,204.1973 455.9326,207.1973 446.9326,207.1973 " fill="none" style="stroke:#181818;stroke-width:1.5;"/><line style="stroke:#181818;stroke-width:1.5;" x1="64" x2="64" y1="243.6855" y2="243.6855"/><rect fill="none" height="26.4883" style="stroke:#181818;stroke-width:0.5;" width="41.9785" x="64" y="230.4414"/><text fill="#000000" font-family="sans-serif" font-size="14" lengthAdjust="spacing" textLength="31.9785" x="69" y="248.9766">Note</text><line style="stroke:#181818;stroke-width:1.5;" x1="105.9785" x2="125.9785" y1="243.6855" y2="243.6855"/><rect fill="#F1F1F1" height="26.4883" rx="5" ry="5" style="stroke:#181818;stroke-width:1.5;" width="126.0879" x="125.9785" y="230.4414"/><text fill="#000000" font-family="sans-serif" font-size="14" lengthAdjust="spacing" textLength="116.0879" x="130.9785" y="248.9766">defaultProperties</text><path d="M52,231.6855 C52,240.6855 55,243.6855 64,243.6855 " fill="none" style="stroke:#181818;stroke-width:1.5;"/><line style="stroke:#181818;stroke-width:1.5;" x1="252.0664" x2="446.9326" y1="243.6855" y2="243.6855"/><path d="M347.4995,243.6855 L347.4995,240.6855 L353.4995,243.6855 L347.4995,246.6855 L347.4995,243.6855 " fill="#181818" style="stroke:#181818;stroke-width:1.5;"/><path d="M458.9326,231.6855 C458.9326,240.6855 455.9326,243.6855 446.9326,243.6855 " fill="none" style="stroke:#181818;stroke-width:1.5;"/><line style="stroke:#181818;stroke-width:1.5;" x1="64" x2="64" y1="280.1738" y2="280.1738"/><rect fill="none" height="26.4883" style="stroke:#181818;stroke-width:0.5;" width="59.957" x="64" y="266.9297"/><text fill="#000000" font-family="sans-serif" font-size="14" lengthAdjust="spacing" textLength="49.957" x="69" y="285.4648">Activity</text><line style="stroke:#181818;stroke-width:1.5;" x1="123.957" x2="143.957" y1="280.1738" y2="280.1738"/><rect fill="#F1F1F1" height="26.4883" rx="5" ry="5" style="stroke:#181818;stroke-width:1.5;" width="126.6553" x="143.957" y="266.9297"/><text fill="#000000" font-family="sans-serif" font-size="14" lengthAdjust="spacing" textLength="116.6553" x="148.957" y="285.4648">activityProperties</text><path d="M52,268.1738 C52,277.1738 55,280.1738 64,280.1738 " fill="none" style="stroke:#181818;stroke-width:1.5;"/><line style="stroke:#181818;stroke-width:1.5;" x1="270.6123" x2="446.9326" y1="280.1738" y2="280.1738"/><path d="M356.7725,280.1738 L356.7725,277.1738 L362.7725,280.1738 L356.7725,283.1738 L356.7725,280.1738 " fill="#181818" style="stroke:#181818;stroke-width:1.5;"/><path d="M458.9326,268.1738 C458.9326,277.1738 455.9326,280.1738 446.9326,280.1738 " fill="none" style="stroke:#181818;stroke-width:1.5;"/><line style="stroke:#181818;stroke-width:1.5;" x1="64" x2="64" y1="316.6621" y2="316.6621"/><rect fill="none" height="26.4883" style="stroke:#181818;stroke-width:0.5;" width="39.3877" x="64" y="303.418"/><text fill="#000000" font-family="sans-serif" font-size="14" lengthAdjust="spacing" textLength="29.3877" x="69" y="321.9531">Step</text><line style="stroke:#181818;stroke-width:1.5;" x1="103.3877" x2="123.3877" y1="316.6621" y2="316.6621"/><rect fill="#F1F1F1" height="26.4883" rx="5" ry="5" style="stroke:#181818;stroke-width:1.5;" width="107.6104" x="123.3877" y="303.418"/><text fill="#000000" font-family="sans-serif" font-size="14" lengthAdjust="spacing" textLength="97.6104" x="128.3877" y="321.9531">stepProperties</text><line style="stroke:#181818;stroke-width:1.5;" x1="230.998" x2="446.9326" y1="316.6621" y2="316.6621"/><path d="M336.9653,316.6621 L336.9653,313.6621 L342.9653,316.6621 L336.9653,319.6621 L336.9653,316.6621 " fill="#181818" style="stroke:#181818;stroke-width:1.5;"/><path d="M52,304.6621 C52,313.6621 55,316.6621 64,316.6621 " fill="none" style="stroke:#181818;stroke-width:1.5;"/><line style="stroke:#181818;stroke-width:1.5;" x1="52" x2="52" y1="61.7324" y2="304.6621"/><path d="M40,49.7324 C49,49.7324 52,52.7324 52,61.7324 " fill="none" style="stroke:#181818;stroke-width:1.5;"/><path d="M458.9326,304.6621 C458.9326,313.6621 455.9326,316.6621 446.9326,316.6621 " fill="none" style="stroke:#181818;stroke-width:1.5;"/><line style="stroke:#181818;stroke-width:1.5;" x1="458.9326" x2="458.9326" y1="61.7324" y2="304.6621"/><path d="M458.9326,61.7324 C458.9326,52.7324 461.9326,49.7324 470.9326,49.7324 " fill="none" style="stroke:#181818;stroke-width:1.5;"/><ellipse cx="14" cy="49.7324" fill="none" rx="4" ry="4" style="stroke:#181818;stroke-width:2.0;"/><ellipse cx="500.9326" cy="49.7324" fill="#181818" rx="4" ry="4" style="stroke:#181818;stroke-width:1.0;"/><line style="stroke:#181818;stroke-width:1.5;" x1="18" x2="40" y1="49.7324" y2="49.7324"/><line style="stroke:#181818;stroke-width:1.5;" x1="470.9326" x2="496.9326" y1="49.7324" y2="49.7324"/><path d="M481.9326,49.7324 L481.9326,46.7324 L487.9326,49.7324 L481.9326,52.7324 L481.9326,49.7324 " fill="#181818" style="stroke:#181818;stroke-width:1.5;"/><text fill="#000000" font-family="sans-serif" font-size="14" font-weight="bold" lengthAdjust="spacing" textLength="44.5771" x="10" y="358.4414">actors</text><rect fill="none" height="26.4883" style="stroke:#181818;stroke-width:0.5;" width="46.3945" x="64" y="371.3945"/><text fill="#000000" font-family="sans-serif" font-size="14" lengthAdjust="spacing" textLength="36.3945" x="69" y="389.9297">Actor</text><line style="stroke:#181818;stroke-width:1.5;" x1="40" x2="64" y1="384.6387" y2="384.6387"/><line style="stroke:#181818;stroke-width:1.5;" x1="110.3945" x2="146.0977" y1="384.6387" y2="384.6387"/><rect fill="none" height="26.4883" style="stroke:#181818;stroke-width:0.5;" width="55.6914" x="64" y="407.8828"/><text fill="#000000" font-family="sans-serif" font-size="14" lengthAdjust="spacing" textLength="45.6914" x="69" y="426.418">Person</text><path d="M52,409.127 C52,418.127 55,421.127 64,421.127 " fill="none" style="stroke:#181818;stroke-width:1.5;"/><line style="stroke:#181818;stroke-width:1.5;" x1="119.6914" x2="122.0977" y1="421.127" y2="421.127"/><path d="M134.0977,409.127 C134.0977,418.127 131.0977,421.127 122.0977,421.127 " fill="none" style="stroke:#181818;stroke-width:1.5;"/><rect fill="none" height="26.4883" style="stroke:#181818;stroke-width:0.5;" width="51.9453" x="64" y="444.3711"/><text fill="#000000" font-family="sans-serif" font-size="14" lengthAdjust="spacing" textLength="41.9453" x="69" y="462.9063">Group</text><path d="M52,445.6152 C52,454.6152 55,457.6152 64,457.6152 " fill="none" style="stroke:#181818;stroke-width:1.5;"/><line style="stroke:#181818;stroke-width:1.5;" x1="115.9453" x2="122.0977" y1="457.6152" y2="457.6152"/><path d="M134.0977,445.6152 C134.0977,454.6152 131.0977,457.6152 122.0977,457.6152 " fill="none" style="stroke:#181818;stroke-width:1.5;"/><rect fill="none" height="26.4883" style="stroke:#181818;stroke-width:0.5;" width="58.0977" x="64" y="480.8594"/><text fill="#000000" font-family="sans-serif" font-size="14" lengthAdjust="spacing" textLength="48.0977" x="69" y="499.3945">System</text><line style="stroke:#181818;stroke-width:1.5;" x1="122.0977" x2="122.0977" y1="494.1035" y2="494.1035"/><path d="M52,482.1035 C52,491.1035 55,494.1035 64,494.1035 " fill="none" style="stroke:#181818;stroke-width:1.5;"/><line style="stroke:#181818;stroke-width:1.5;" x1="52" x2="52" y1="396.6387" y2="482.1035"/><path d="M40,384.6387 C49,384.6387 52,387.6387 52,396.6387 " fill="none" style="stroke:#181818;stroke-width:1.5;"/><path d="M134.0977,482.1035 C134.0977,491.1035 131.0977,494.1035 122.0977,494.1035 " fill="none" style="stroke:#181818;stroke-width:1.5;"/><line style="stroke:#181818;stroke-width:1.5;" x1="134.0977" x2="134.0977" y1="396.6387" y2="482.1035"/><path d="M134.0977,396.6387 C134.0977,387.6387 137.0977,384.6387 146.0977,384.6387 " fill="none" style="stroke:#181818;stroke-width:1.5;"/><ellipse cx="14" cy="384.6387" fill="none" rx="4" ry="4" style="stroke:#181818;stroke-width:2.0;"/><ellipse cx="176.0977" cy="384.6387" fill="#181818" rx="4" ry="4" style="stroke:#181818;stroke-width:1.0;"/><line style="stroke:#181818;stroke-width:1.5;" x1="18" x2="40" y1="384.6387" y2="384.6387"/><line style="stroke:#181818;stroke-width:1.5;" x1="146.0977" x2="172.0977" y1="384.6387" y2="384.6387"/><path d="M157.0977,384.6387 L157.0977,381.6387 L163.0977,384.6387 L157.0977,387.6387 L157.0977,384.6387 " fill="#181818" style="stroke:#181818;stroke-width:1.5;"/><text fill="#000000" font-family="sans-serif" font-size="14" font-weight="bold" lengthAdjust="spacing" textLength="90.9521" x="10" y="535.8828">workObjects</text><rect fill="none" height="26.4883" style="stroke:#181818;stroke-width:0.5;" width="54.1533" x="64" y="548.8359"/><text fill="#000000" font-family="sans-serif" font-size="14" lengthAdjust="spacing" textLength="44.1533" x="69" y="567.3711">Object</text><line style="stroke:#181818;stroke-width:1.5;" x1="40" x2="64" y1="562.0801" y2="562.0801"/><line style="stroke:#181818;stroke-width:1.5;" x1="118.1533" x2="187.1885" y1="562.0801" y2="562.0801"/><rect fill="none" height="26.4883" style="stroke:#181818;stroke-width:0.5;" width="79.7402" x="64" y="585.3242"/><text fill="#000000" font-family="sans-serif" font-size="14" lengthAdjust="spacing" textLength="69.7402" x="69" y="603.8594">Document</text><path d="M52,586.5684 C52,595.5684 55,598.5684 64,598.5684 " fill="none" style="stroke:#181818;stroke-width:1.5;"/><line style="stroke:#181818;stroke-width:1.5;" x1="143.7402" x2="163.1885" y1="598.5684" y2="598.5684"/><path d="M175.1885,586.5684 C175.1885,595.5684 172.1885,598.5684 163.1885,598.5684 " fill="none" style="stroke:#181818;stroke-width:1.5;"/><rect fill="none" height="26.4883" style="stroke:#181818;stroke-width:0.5;" width="52.4922" x="64" y="621.8125"/><text fill="#000000" font-family="sans-serif" font-size="14" lengthAdjust="spacing" textLength="42.4922" x="69" y="640.3477">Folder</text><path d="M52,623.0566 C52,632.0566 55,635.0566 64,635.0566 " fill="none" style="stroke:#181818;stroke-width:1.5;"/><line style="stroke:#181818;stroke-width:1.5;" x1="116.4922" x2="163.1885" y1="635.0566" y2="635.0566"/><path d="M137.8403,635.0566 L137.8403,632.0566 L143.8403,635.0566 L137.8403,638.0566 L137.8403,635.0566 " fill="#181818" style="stroke:#181818;stroke-width:1.5;"/><path d="M175.1885,623.0566 C175.1885,632.0566 172.1885,635.0566 163.1885,635.0566 " fill="none" style="stroke:#181818;stroke-width:1.5;"/><rect fill="none" height="26.4883" style="stroke:#181818;stroke-width:0.5;" width="35.5117" x="64" y="658.3008"/><text fill="#000000" font-family="sans-serif" font-size="14" lengthAdjust="spacing" textLength="25.5117" x="69" y="676.8359">Call</text><path d="M52,659.5449 C52,668.5449 55,671.5449 64,671.5449 " fill="none" style="stroke:#181818;stroke-width:1.5;"/><line style="stroke:#181818;stroke-width:1.5;" x1="99.5117" x2="163.1885" y1="671.5449" y2="671.5449"/><path d="M129.3501,671.5449 L129.3501,668.5449 L135.3501,671.5449 L129.3501,674.5449 L129.3501,671.5449 " fill="#181818" style="stroke:#181818;stroke-width:1.5;"/><path d="M175.1885,659.5449 C175.1885,668.5449 172.1885,671.5449 163.1885,671.5449 " fill="none" style="stroke:#181818;stroke-width:1.5;"/><rect fill="none" height="26.4883" style="stroke:#181818;stroke-width:0.5;" width="46.4834" x="64" y="694.7891"/><text fill="#000000" font-family="sans-serif" font-size="14" lengthAdjust="spacing" textLength="36.4834" x="69" y="713.3242">Email</text><path d="M52,696.0332 C52,705.0332 55,708.0332 64,708.0332 " fill="none" style="stroke:#181818;stroke-width:1.5;"/><line style="stroke:#181818;stroke-width:1.5;" x1="110.4834" x2="163.1885" y1="708.0332" y2="708.0332"/><path d="M134.8359,708.0332 L134.8359,705.0332 L140.8359,708.0332 L134.8359,711.0332 L134.8359,708.0332 " fill="#181818" style="stroke:#181818;stroke-width:1.5;"/><path d="M175.1885,696.0332 C175.1885,705.0332 172.1885,708.0332 163.1885,708.0332 " fill="none" style="stroke:#181818;stroke-width:1.5;"/><rect fill="none" height="26.4883" style="stroke:#181818;stroke-width:0.5;" width="99.1885" x="64" y="731.2773"/><text fill="#000000" font-family="sans-serif" font-size="14" lengthAdjust="spacing" textLength="89.1885" x="69" y="749.8125">Conversation</text><path d="M52,732.5215 C52,741.5215 55,744.5215 64,744.5215 " fill="none" style="stroke:#181818;stroke-width:1.5;"/><line style="stroke:#181818;stroke-width:1.5;" x1="163.1885" x2="163.1885" y1="744.5215" y2="744.5215"/><path d="M175.1885,732.5215 C175.1885,741.5215 172.1885,744.5215 163.1885,744.5215 " fill="none" style="stroke:#181818;stroke-width:1.5;"/><rect fill="none" height="26.4883" style="stroke:#181818;stroke-width:0.5;" width="36.4688" x="64" y="767.7656"/><text fill="#000000" font-family="sans-serif" font-size="14" lengthAdjust="spacing" textLength="26.4688" x="69" y="786.3008">Info</text><line style="stroke:#181818;stroke-width:1.5;" x1="100.4688" x2="163.1885" y1="781.0098" y2="781.0098"/><path d="M129.8286,781.0098 L129.8286,778.0098 L135.8286,781.0098 L129.8286,784.0098 L129.8286,781.0098 " fill="#181818" style="stroke:#181818;stroke-width:1.5;"/><path d="M52,769.0098 C52,778.0098 55,781.0098 64,781.0098 " fill="none" style="stroke:#181818;stroke-width:1.5;"/><line style="stroke:#181818;stroke-width:1.5;" x1="52" x2="52" y1="574.0801" y2="769.0098"/><path d="M40,562.0801 C49,562.0801 52,565.0801 52,574.0801 " fill="none" style="stroke:#181818;stroke-width:1.5;"/><path d="M175.1885,769.0098 C175.1885,778.0098 172.1885,781.0098 163.1885,781.0098 " fill="none" style="stroke:#181818;stroke-width:1.5;"/><line style="stroke:#181818;stroke-width:1.5;" x1="175.1885" x2="175.1885" y1="574.0801" y2="769.0098"/><path d="M175.1885,574.0801 C175.1885,565.0801 178.1885,562.0801 187.1885,562.0801 " fill="none" style="stroke:#181818;stroke-width:1.5;"/><ellipse cx="14" cy="562.0801" fill="none" rx="4" ry="4" style="stroke:#181818;stroke-width:2.0;"/><ellipse cx="217.1885" cy="562.0801" fill="#181818" rx="4" ry="4" style="stroke:#181818;stroke-width:1.0;"/><line style="stroke:#181818;stroke-width:1.5;" x1="18" x2="40" y1="562.0801" y2="562.0801"/><line style="stroke:#181818;stroke-width:1.5;" x1="187.1885" x2="213.1885" y1="562.0801" y2="562.0801"/><path d="M198.1885,562.0801 L198.1885,559.0801 L204.1885,562.0801 L198.1885,565.0801 L198.1885,562.0801 " fill="#181818" style="stroke:#181818;stroke-width:1.5;"/><text fill="#000000" font-family="sans-serif" font-size="14" font-weight="bold" lengthAdjust="spacing" textLength="125.0156" x="10" y="822.7891">defaultProperties</text><rect fill="none" height="26.4883" style="stroke:#181818;stroke-width:0.5;" width="76.6914" x="64" y="835.7422"/><text fill="#000000" font-family="sans-serif" font-size="14" lengthAdjust="spacing" textLength="66.6914" x="69" y="854.2773">FontColor</text><line style="stroke:#181818;stroke-width:1.5;" x1="40" x2="64" y1="848.9863" y2="848.9863"/><line style="stroke:#181818;stroke-width:1.5;" x1="140.6914" x2="215.0449" y1="848.9863" y2="848.9863"/><rect fill="none" height="26.4883" style="stroke:#181818;stroke-width:0.5;" width="78.9746" x="64" y="872.2305"/><text fill="#000000" font-family="sans-serif" font-size="14" lengthAdjust="spacing" textLength="68.9746" x="69" y="890.7656">FontName</text><path d="M52,873.4746 C52,882.4746 55,885.4746 64,885.4746 " fill="none" style="stroke:#181818;stroke-width:1.5;"/><line style="stroke:#181818;stroke-width:1.5;" x1="142.9746" x2="191.0449" y1="885.4746" y2="885.4746"/><path d="M165.0098,885.4746 L165.0098,882.4746 L171.0098,885.4746 L165.0098,888.4746 L165.0098,885.4746 " fill="#181818" style="stroke:#181818;stroke-width:1.5;"/><path d="M203.0449,873.4746 C203.0449,882.4746 200.0449,885.4746 191.0449,885.4746 " fill="none" style="stroke:#181818;stroke-width:1.5;"/><rect fill="none" height="26.4883" style="stroke:#181818;stroke-width:0.5;" width="67.4424" x="64" y="908.7188"/><text fill="#000000" font-family="sans-serif" font-size="14" lengthAdjust="spacing" textLength="57.4424" x="69" y="927.2539">FontSize</text><path d="M52,909.9629 C52,918.9629 55,921.9629 64,921.9629 " fill="none" style="stroke:#181818;stroke-width:1.5;"/><line style="stroke:#181818;stroke-width:1.5;" x1="131.4424" x2="191.0449" y1="921.9629" y2="921.9629"/><path d="M159.2437,921.9629 L159.2437,918.9629 L165.2437,921.9629 L159.2437,924.9629 L159.2437,921.9629 " fill="#181818" style="stroke:#181818;stroke-width:1.5;"/><path d="M203.0449,909.9629 C203.0449,918.9629 200.0449,921.9629 191.0449,921.9629 " fill="none" style="stroke:#181818;stroke-width:1.5;"/><rect fill="none" height="26.4883" style="stroke:#181818;stroke-width:0.5;" width="71.9678" x="64" y="945.207"/><text fill="#000000" font-family="sans-serif" font-size="14" lengthAdjust="spacing" textLength="61.9678" x="69" y="963.7422">FontStyle</text><path d="M52,946.4512 C52,955.4512 55,958.4512 64,958.4512 " fill="none" style="stroke:#181818;stroke-width:1.5;"/><line style="stroke:#181818;stroke-width:1.5;" x1="135.9678" x2="191.0449" y1="958.4512" y2="958.4512"/><path d="M161.5063,958.4512 L161.5063,955.4512 L167.5063,958.4512 L161.5063,961.4512 L161.5063,958.4512 " fill="#181818" style="stroke:#181818;stroke-width:1.5;"/><path d="M203.0449,946.4512 C203.0449,955.4512 200.0449,958.4512 191.0449,958.4512 " fill="none" style="stroke:#181818;stroke-width:1.5;"/><rect fill="none" height="26.4883" style="stroke:#181818;stroke-width:0.5;" width="110.4404" x="64" y="981.6953"/><text fill="#000000" font-family="sans-serif" font-size="14" lengthAdjust="spacing" textLength="100.4404" x="69" y="1000.2305">TextAlignment</text><path d="M52,982.9395 C52,991.9395 55,994.9395 64,994.9395 " fill="none" style="stroke:#181818;stroke-width:1.5;"/><line style="stroke:#181818;stroke-width:1.5;" x1="174.4404" x2="191.0449" y1="994.9395" y2="994.9395"/><path d="M203.0449,982.9395 C203.0449,991.9395 200.0449,994.9395 191.0449,994.9395 " fill="none" style="stroke:#181818;stroke-width:1.5;"/><rect fill="none" height="26.4883" style="stroke:#181818;stroke-width:0.5;" width="127.0449" x="64" y="1018.1836"/><text fill="#000000" font-family="sans-serif" font-size="14" lengthAdjust="spacing" textLength="117.0449" x="69" y="1036.7188">BackgroundColor</text><path d="M52,1019.4277 C52,1028.4277 55,1031.4277 64,1031.4277 " fill="none" style="stroke:#181818;stroke-width:1.5;"/><line style="stroke:#181818;stroke-width:1.5;" x1="191.0449" x2="191.0449" y1="1031.4277" y2="1031.4277"/><path d="M203.0449,1019.4277 C203.0449,1028.4277 200.0449,1031.4277 191.0449,1031.4277 " fill="none" style="stroke:#181818;stroke-width:1.5;"/><rect fill="none" height="26.4883" style="stroke:#181818;stroke-width:0.5;" width="86.6582" x="64" y="1054.6719"/><text fill="#000000" font-family="sans-serif" font-size="14" lengthAdjust="spacing" textLength="76.6582" x="69" y="1073.207">BorderStyle</text><path d="M52,1055.916 C52,1064.916 55,1067.916 64,1067.916 " fill="none" style="stroke:#181818;stroke-width:1.5;"/><line style="stroke:#181818;stroke-width:1.5;" x1="150.6582" x2="191.0449" y1="1067.916" y2="1067.916"/><path d="M168.8516,1067.916 L168.8516,1064.916 L174.8516,1067.916 L168.8516,1070.916 L168.8516,1067.916 " fill="#181818" style="stroke:#181818;stroke-width:1.5;"/><path d="M203.0449,1055.916 C203.0449,1064.916 200.0449,1067.916 191.0449,1067.916 " fill="none" style="stroke:#181818;stroke-width:1.5;"/><rect fill="none" height="26.4883" style="stroke:#181818;stroke-width:0.5;" width="91.3818" x="64" y="1091.1602"/><text fill="#000000" font-family="sans-serif" font-size="14" lengthAdjust="spacing" textLength="81.3818" x="69" y="1109.6953">BorderColor</text><path d="M52,1092.4043 C52,1101.4043 55,1104.4043 64,1104.4043 " fill="none" style="stroke:#181818;stroke-width:1.5;"/><line style="stroke:#181818;stroke-width:1.5;" x1="155.3818" x2="191.0449" y1="1104.4043" y2="1104.4043"/><path d="M171.2134,1104.4043 L171.2134,1101.4043 L177.2134,1104.4043 L171.2134,1107.4043 L171.2134,1104.4043 " fill="#181818" style="stroke:#181818;stroke-width:1.5;"/><path d="M203.0449,1092.4043 C203.0449,1101.4043 200.0449,1104.4043 191.0449,1104.4043 " fill="none" style="stroke:#181818;stroke-width:1.5;"/><rect fill="none" height="26.4883" style="stroke:#181818;stroke-width:0.5;" width="122.4238" x="64" y="1127.6484"/><text fill="#000000" font-family="sans-serif" font-size="14" lengthAdjust="spacing" textLength="112.4238" x="69" y="1146.1836">BorderThickness</text><path d="M52,1128.8926 C52,1137.8926 55,1140.8926 64,1140.8926 " fill="none" style="stroke:#181818;stroke-width:1.5;"/><line style="stroke:#181818;stroke-width:1.5;" x1="186.4238" x2="191.0449" y1="1140.8926" y2="1140.8926"/><path d="M203.0449,1128.8926 C203.0449,1137.8926 200.0449,1140.8926 191.0449,1140.8926 " fill="none" style="stroke:#181818;stroke-width:1.5;"/><rect fill="none" height="26.4883" style="stroke:#181818;stroke-width:0.5;" width="99.8721" x="64" y="1164.1367"/><text fill="#000000" font-family="sans-serif" font-size="14" lengthAdjust="spacing" textLength="89.8721" x="69" y="1182.6719">RoundCorner</text><path d="M52,1165.3809 C52,1174.3809 55,1177.3809 64,1177.3809 " fill="none" style="stroke:#181818;stroke-width:1.5;"/><line style="stroke:#181818;stroke-width:1.5;" x1="163.8721" x2="191.0449" y1="1177.3809" y2="1177.3809"/><path d="M175.4585,1177.3809 L175.4585,1174.3809 L181.4585,1177.3809 L175.4585,1180.3809 L175.4585,1177.3809 " fill="#181818" style="stroke:#181818;stroke-width:1.5;"/><path d="M203.0449,1165.3809 C203.0449,1174.3809 200.0449,1177.3809 191.0449,1177.3809 " fill="none" style="stroke:#181818;stroke-width:1.5;"/><rect fill="none" height="26.4883" style="stroke:#181818;stroke-width:0.5;" width="83.623" x="64" y="1200.625"/><text fill="#000000" font-family="sans-serif" font-size="14" lengthAdjust="spacing" textLength="73.623" x="69" y="1219.1602">Shadowing</text><line style="stroke:#181818;stroke-width:1.5;" x1="147.623" x2="191.0449" y1="1213.8691" y2="1213.8691"/><path d="M167.334,1213.8691 L167.334,1210.8691 L173.334,1213.8691 L167.334,1216.8691 L167.334,1213.8691 " fill="#181818" style="stroke:#181818;stroke-width:1.5;"/><path d="M52,1201.8691 C52,1210.8691 55,1213.8691 64,1213.8691 " fill="none" style="stroke:#181818;stroke-width:1.5;"/><line style="stroke:#181818;stroke-width:1.5;" x1="52" x2="52" y1="860.9863" y2="1201.8691"/><path d="M40,848.9863 C49,848.9863 52,851.9863 52,860.9863 " fill="none" style="stroke:#181818;stroke-width:1.5;"/><path d="M203.0449,1201.8691 C203.0449,1210.8691 200.0449,1213.8691 191.0449,1213.8691 " fill="none" style="stroke:#181818;stroke-width:1.5;"/><line style="stroke:#181818;stroke-width:1.5;" x1="203.0449" x2="203.0449" y1="860.9863" y2="1201.8691"/><path d="M203.0449,860.9863 C203.0449,851.9863 206.0449,848.9863 215.0449,848.9863 " fill="none" style="stroke:#181818;stroke-width:1.5;"/><ellipse cx="14" cy="848.9863" fill="none" rx="4" ry="4" style="stroke:#181818;stroke-width:2.0;"/><ellipse cx="245.0449" cy="848.9863" fill="#181818" rx="4" ry="4" style="stroke:#181818;stroke-width:1.0;"/><line style="stroke:#181818;stroke-width:1.5;" x1="18" x2="40" y1="848.9863" y2="848.9863"/><line style="stroke:#181818;stroke-width:1.5;" x1="215.0449" x2="241.0449" y1="848.9863" y2="848.9863"/><path d="M226.0449,848.9863 L226.0449,845.9863 L232.0449,848.9863 L226.0449,851.9863 L226.0449,848.9863 " fill="#181818" style="stroke:#181818;stroke-width:1.5;"/><text fill="#000000" font-family="sans-serif" font-size="14" font-weight="bold" lengthAdjust="spacing" textLength="131.6875" x="10" y="1255.6484">elementProperties</text><rect fill="none" height="26.4883" style="stroke:#181818;stroke-width:0.5;" width="50.5713" x="64" y="1268.6016"/><text fill="#000000" font-family="sans-serif" font-size="14" lengthAdjust="spacing" textLength="40.5713" x="69" y="1287.1367">Shape</text><line style="stroke:#181818;stroke-width:1.5;" x1="40" x2="64" y1="1281.8457" y2="1281.8457"/><line style="stroke:#181818;stroke-width:1.5;" x1="114.5713" x2="214.0879" y1="1281.8457" y2="1281.8457"/><rect fill="none" height="26.4883" style="stroke:#181818;stroke-width:0.5;" width="70.4297" x="64" y="1305.0898"/><text fill="#000000" font-family="sans-serif" font-size="14" lengthAdjust="spacing" textLength="60.4297" x="69" y="1323.625">IconStyle</text><path d="M52,1306.334 C52,1315.334 55,1318.334 64,1318.334 " fill="none" style="stroke:#181818;stroke-width:1.5;"/><line style="stroke:#181818;stroke-width:1.5;" x1="134.4297" x2="190.0879" y1="1318.334" y2="1318.334"/><path d="M160.2588,1318.334 L160.2588,1315.334 L166.2588,1318.334 L160.2588,1321.334 L160.2588,1318.334 " fill="#181818" style="stroke:#181818;stroke-width:1.5;"/><path d="M202.0879,1306.334 C202.0879,1315.334 199.0879,1318.334 190.0879,1318.334 " fill="none" style="stroke:#181818;stroke-width:1.5;"/><rect fill="none" height="26.4883" style="stroke:#181818;stroke-width:0.5;" width="72.7813" x="64" y="1341.5781"/><text fill="#000000" font-family="sans-serif" font-size="14" lengthAdjust="spacing" textLength="62.7813" x="69" y="1360.1133">IconScale</text><path d="M52,1342.8223 C52,1351.8223 55,1354.8223 64,1354.8223 " fill="none" style="stroke:#181818;stroke-width:1.5;"/><line style="stroke:#181818;stroke-width:1.5;" x1="136.7813" x2="190.0879" y1="1354.8223" y2="1354.8223"/><path d="M161.4346,1354.8223 L161.4346,1351.8223 L167.4346,1354.8223 L161.4346,1357.8223 L161.4346,1354.8223 " fill="#181818" style="stroke:#181818;stroke-width:1.5;"/><path d="M202.0879,1342.8223 C202.0879,1351.8223 199.0879,1354.8223 190.0879,1354.8223 " fill="none" style="stroke:#181818;stroke-width:1.5;"/><rect fill="none" height="26.4883" style="stroke:#181818;stroke-width:0.5;" width="75.1533" x="64" y="1378.0664"/><text fill="#000000" font-family="sans-serif" font-size="14" lengthAdjust="spacing" textLength="65.1533" x="69" y="1396.6016">IconColor</text><path d="M52,1379.3105 C52,1388.3105 55,1391.3105 64,1391.3105 " fill="none" style="stroke:#181818;stroke-width:1.5;"/><line style="stroke:#181818;stroke-width:1.5;" x1="139.1533" x2="190.0879" y1="1391.3105" y2="1391.3105"/><path d="M162.6206,1391.3105 L162.6206,1388.3105 L168.6206,1391.3105 L162.6206,1394.3105 L162.6206,1391.3105 " fill="#181818" style="stroke:#181818;stroke-width:1.5;"/><path d="M202.0879,1379.3105 C202.0879,1388.3105 199.0879,1391.3105 190.0879,1391.3105 " fill="none" style="stroke:#181818;stroke-width:1.5;"/><rect fill="#F1F1F1" height="26.4883" rx="5" ry="5" style="stroke:#181818;stroke-width:1.5;" width="126.0879" x="64" y="1414.5547"/><text fill="#000000" font-family="sans-serif" font-size="14" lengthAdjust="spacing" textLength="116.0879" x="69" y="1433.0898">defaultProperties</text><line style="stroke:#181818;stroke-width:1.5;" x1="190.0879" x2="190.0879" y1="1427.7988" y2="1427.7988"/><path d="M52,1415.7988 C52,1424.7988 55,1427.7988 64,1427.7988 " fill="none" style="stroke:#181818;stroke-width:1.5;"/><line style="stroke:#181818;stroke-width:1.5;" x1="52" x2="52" y1="1293.8457" y2="1415.7988"/><path d="M40,1281.8457 C49,1281.8457 52,1284.8457 52,1293.8457 " fill="none" style="stroke:#181818;stroke-width:1.5;"/><path d="M202.0879,1415.7988 C202.0879,1424.7988 199.0879,1427.7988 190.0879,1427.7988 " fill="none" style="stroke:#181818;stroke-width:1.5;"/><line style="stroke:#181818;stroke-width:1.5;" x1="202.0879" x2="202.0879" y1="1293.8457" y2="1415.7988"/><path d="M202.0879,1293.8457 C202.0879,1284.8457 205.0879,1281.8457 214.0879,1281.8457 " fill="none" style="stroke:#181818;stroke-width:1.5;"/><ellipse cx="14" cy="1281.8457" fill="none" rx="4" ry="4" style="stroke:#181818;stroke-width:2.0;"/><ellipse cx="244.0879" cy="1281.8457" fill="#181818" rx="4" ry="4" style="stroke:#181818;stroke-width:1.0;"/><line style="stroke:#181818;stroke-width:1.5;" x1="18" x2="40" y1="1281.8457" y2="1281.8457"/><line style="stroke:#181818;stroke-width:1.5;" x1="214.0879" x2="240.0879" y1="1281.8457" y2="1281.8457"/><path d="M225.0879,1281.8457 L225.0879,1278.8457 L231.0879,1281.8457 L225.0879,1284.8457 L225.0879,1281.8457 " fill="#181818" style="stroke:#181818;stroke-width:1.5;"/><text fill="#000000" font-family="sans-serif" font-size="14" font-weight="bold" lengthAdjust="spacing" textLength="142.7207" x="10" y="1469.5781">boundaryProperties</text><rect fill="none" height="26.4883" style="stroke:#181818;stroke-width:0.5;" width="50.5713" x="64" y="1482.5313"/><text fill="#000000" font-family="sans-serif" font-size="14" lengthAdjust="spacing" textLength="40.5713" x="69" y="1501.0664">Shape</text><line style="stroke:#181818;stroke-width:1.5;" x1="40" x2="64" y1="1495.7754" y2="1495.7754"/><line style="stroke:#181818;stroke-width:1.5;" x1="114.5713" x2="214.0879" y1="1495.7754" y2="1495.7754"/><rect fill="#F1F1F1" height="26.4883" rx="5" ry="5" style="stroke:#181818;stroke-width:1.5;" width="126.0879" x="64" y="1519.0195"/><text fill="#000000" font-family="sans-serif" font-size="14" lengthAdjust="spacing" textLength="116.0879" x="69" y="1537.5547">defaultProperties</text><line style="stroke:#181818;stroke-width:1.5;" x1="190.0879" x2="190.0879" y1="1532.2637" y2="1532.2637"/><path d="M52,1520.2637 C52,1529.2637 55,1532.2637 64,1532.2637 " fill="none" style="stroke:#181818;stroke-width:1.5;"/><line style="stroke:#181818;stroke-width:1.5;" x1="52" x2="52" y1="1507.7754" y2="1520.2637"/><path d="M40,1495.7754 C49,1495.7754 52,1498.7754 52,1507.7754 " fill="none" style="stroke:#181818;stroke-width:1.5;"/><path d="M202.0879,1520.2637 C202.0879,1529.2637 199.0879,1532.2637 190.0879,1532.2637 " fill="none" style="stroke:#181818;stroke-width:1.5;"/><line style="stroke:#181818;stroke-width:1.5;" x1="202.0879" x2="202.0879" y1="1507.7754" y2="1520.2637"/><path d="M202.0879,1507.7754 C202.0879,1498.7754 205.0879,1495.7754 214.0879,1495.7754 " fill="none" style="stroke:#181818;stroke-width:1.5;"/><ellipse cx="14" cy="1495.7754" fill="none" rx="4" ry="4" style="stroke:#181818;stroke-width:2.0;"/><ellipse cx="244.0879" cy="1495.7754" fill="#181818" rx="4" ry="4" style="stroke:#181818;stroke-width:1.0;"/><line style="stroke:#181818;stroke-width:1.5;" x1="18" x2="40" y1="1495.7754" y2="1495.7754"/><line style="stroke:#181818;stroke-width:1.5;" x1="214.0879" x2="240.0879" y1="1495.7754" y2="1495.7754"/><path d="M225.0879,1495.7754 L225.0879,1492.7754 L231.0879,1495.7754 L225.0879,1498.7754 L225.0879,1495.7754 " fill="#181818" style="stroke:#181818;stroke-width:1.5;"/><text fill="#000000" font-family="sans-serif" font-size="14" font-weight="bold" lengthAdjust="spacing" textLength="126.6836" x="10" y="1574.043">activityProperties</text><rect fill="none" height="26.4883" style="stroke:#181818;stroke-width:0.5;" width="50.5713" x="64" y="1586.9961"/><text fill="#000000" font-family="sans-serif" font-size="14" lengthAdjust="spacing" textLength="40.5713" x="69" y="1605.5313">Shape</text><line style="stroke:#181818;stroke-width:1.5;" x1="40" x2="64" y1="1600.2402" y2="1600.2402"/><line style="stroke:#181818;stroke-width:1.5;" x1="114.5713" x2="226.3584" y1="1600.2402" y2="1600.2402"/><rect fill="none" height="26.4883" style="stroke:#181818;stroke-width:0.5;" width="76.6914" x="64" y="1623.4844"/><text fill="#000000" font-family="sans-serif" font-size="14" lengthAdjust="spacing" textLength="66.6914" x="69" y="1642.0195">FontColor</text><path d="M52,1624.7285 C52,1633.7285 55,1636.7285 64,1636.7285 " fill="none" style="stroke:#181818;stroke-width:1.5;"/><line style="stroke:#181818;stroke-width:1.5;" x1="140.6914" x2="202.3584" y1="1636.7285" y2="1636.7285"/><path d="M169.5249,1636.7285 L169.5249,1633.7285 L175.5249,1636.7285 L169.5249,1639.7285 L169.5249,1636.7285 " fill="#181818" style="stroke:#181818;stroke-width:1.5;"/><path d="M214.3584,1624.7285 C214.3584,1633.7285 211.3584,1636.7285 202.3584,1636.7285 " fill="none" style="stroke:#181818;stroke-width:1.5;"/><rect fill="none" height="26.4883" style="stroke:#181818;stroke-width:0.5;" width="78.9746" x="64" y="1659.9727"/><text fill="#000000" font-family="sans-serif" font-size="14" lengthAdjust="spacing" textLength="68.9746" x="69" y="1678.5078">FontName</text><path d="M52,1661.2168 C52,1670.2168 55,1673.2168 64,1673.2168 " fill="none" style="stroke:#181818;stroke-width:1.5;"/><line style="stroke:#181818;stroke-width:1.5;" x1="142.9746" x2="202.3584" y1="1673.2168" y2="1673.2168"/><path d="M170.6665,1673.2168 L170.6665,1670.2168 L176.6665,1673.2168 L170.6665,1676.2168 L170.6665,1673.2168 " fill="#181818" style="stroke:#181818;stroke-width:1.5;"/><path d="M214.3584,1661.2168 C214.3584,1670.2168 211.3584,1673.2168 202.3584,1673.2168 " fill="none" style="stroke:#181818;stroke-width:1.5;"/><rect fill="none" height="26.4883" style="stroke:#181818;stroke-width:0.5;" width="67.4424" x="64" y="1696.4609"/><text fill="#000000" font-family="sans-serif" font-size="14" lengthAdjust="spacing" textLength="57.4424" x="69" y="1714.9961">FontSize</text><path d="M52,1697.7051 C52,1706.7051 55,1709.7051 64,1709.7051 " fill="none" style="stroke:#181818;stroke-width:1.5;"/><line style="stroke:#181818;stroke-width:1.5;" x1="131.4424" x2="202.3584" y1="1709.7051" y2="1709.7051"/><path d="M164.9004,1709.7051 L164.9004,1706.7051 L170.9004,1709.7051 L164.9004,1712.7051 L164.9004,1709.7051 " fill="#181818" style="stroke:#181818;stroke-width:1.5;"/><path d="M214.3584,1697.7051 C214.3584,1706.7051 211.3584,1709.7051 202.3584,1709.7051 " fill="none" style="stroke:#181818;stroke-width:1.5;"/><rect fill="none" height="26.4883" style="stroke:#181818;stroke-width:0.5;" width="71.9678" x="64" y="1732.9492"/><text fill="#000000" font-family="sans-serif" font-size="14" lengthAdjust="spacing" textLength="61.9678" x="69" y="1751.4844">FontStyle</text><path d="M52,1734.1934 C52,1743.1934 55,1746.1934 64,1746.1934 " fill="none" style="stroke:#181818;stroke-width:1.5;"/><line style="stroke:#181818;stroke-width:1.5;" x1="135.9678" x2="202.3584" y1="1746.1934" y2="1746.1934"/><path d="M167.1631,1746.1934 L167.1631,1743.1934 L173.1631,1746.1934 L167.1631,1749.1934 L167.1631,1746.1934 " fill="#181818" style="stroke:#181818;stroke-width:1.5;"/><path d="M214.3584,1734.1934 C214.3584,1743.1934 211.3584,1746.1934 202.3584,1746.1934 " fill="none" style="stroke:#181818;stroke-width:1.5;"/><rect fill="none" height="26.4883" style="stroke:#181818;stroke-width:0.5;" width="138.3584" x="64" y="1769.4375"/><text fill="#000000" font-family="sans-serif" font-size="14" lengthAdjust="spacing" textLength="128.3584" x="69" y="1787.9727">MessageAlignment</text><path d="M52,1770.6816 C52,1779.6816 55,1782.6816 64,1782.6816 " fill="none" style="stroke:#181818;stroke-width:1.5;"/><line style="stroke:#181818;stroke-width:1.5;" x1="202.3584" x2="202.3584" y1="1782.6816" y2="1782.6816"/><path d="M214.3584,1770.6816 C214.3584,1779.6816 211.3584,1782.6816 202.3584,1782.6816 " fill="none" style="stroke:#181818;stroke-width:1.5;"/><rect fill="none" height="26.4883" style="stroke:#181818;stroke-width:0.5;" width="46.6611" x="64" y="1805.9258"/><text fill="#000000" font-family="sans-serif" font-size="14" lengthAdjust="spacing" textLength="36.6611" x="69" y="1824.4609">Color</text><line style="stroke:#181818;stroke-width:1.5;" x1="110.6611" x2="202.3584" y1="1819.1699" y2="1819.1699"/><path d="M154.5098,1819.1699 L154.5098,1816.1699 L160.5098,1819.1699 L154.5098,1822.1699 L154.5098,1819.1699 " fill="#181818" style="stroke:#181818;stroke-width:1.5;"/><path d="M52,1807.1699 C52,1816.1699 55,1819.1699 64,1819.1699 " fill="none" style="stroke:#181818;stroke-width:1.5;"/><line style="stroke:#181818;stroke-width:1.5;" x1="52" x2="52" y1="1612.2402" y2="1807.1699"/><path d="M40,1600.2402 C49,1600.2402 52,1603.2402 52,1612.2402 " fill="none" style="stroke:#181818;stroke-width:1.5;"/><path d="M214.3584,1807.1699 C214.3584,1816.1699 211.3584,1819.1699 202.3584,1819.1699 " fill="none" style="stroke:#181818;stroke-width:1.5;"/><line style="stroke:#181818;stroke-width:1.5;" x1="214.3584" x2="214.3584" y1="1612.2402" y2="1807.1699"/><path d="M214.3584,1612.2402 C214.3584,1603.2402 217.3584,1600.2402 226.3584,1600.2402 " fill="none" style="stroke:#181818;stroke-width:1.5;"/><ellipse cx="14" cy="1600.2402" fill="none" rx="4" ry="4" style="stroke:#181818;stroke-width:2.0;"/><ellipse cx="256.3584" cy="1600.2402" fill="#181818" rx="4" ry="4" style="stroke:#181818;stroke-width:1.0;"/><line style="stroke:#181818;stroke-width:1.5;" x1="18" x2="40" y1="1600.2402" y2="1600.2402"/><line style="stroke:#181818;stroke-width:1.5;" x1="226.3584" x2="252.3584" y1="1600.2402" y2="1600.2402"/><path d="M237.3584,1600.2402 L237.3584,1597.2402 L243.3584,1600.2402 L237.3584,1603.2402 L237.3584,1600.2402 " fill="#181818" style="stroke:#181818;stroke-width:1.5;"/><text fill="#000000" font-family="sans-serif" font-size="14" font-weight="bold" lengthAdjust="spacing" textLength="105.1504" x="10" y="1860.9492">stepProperties</text><rect fill="none" height="26.4883" style="stroke:#181818;stroke-width:0.5;" width="76.6914" x="64" y="1873.9023"/><text fill="#000000" font-family="sans-serif" font-size="14" lengthAdjust="spacing" textLength="66.6914" x="69" y="1892.4375">FontColor</text><line style="stroke:#181818;stroke-width:1.5;" x1="40" x2="64" y1="1887.1465" y2="1887.1465"/><line style="stroke:#181818;stroke-width:1.5;" x1="140.6914" x2="215.0449" y1="1887.1465" y2="1887.1465"/><rect fill="none" height="26.4883" style="stroke:#181818;stroke-width:0.5;" width="67.4424" x="64" y="1910.3906"/><text fill="#000000" font-family="sans-serif" font-size="14" lengthAdjust="spacing" textLength="57.4424" x="69" y="1928.9258">FontSize</text><path d="M52,1911.6348 C52,1920.6348 55,1923.6348 64,1923.6348 " fill="none" style="stroke:#181818;stroke-width:1.5;"/><line style="stroke:#181818;stroke-width:1.5;" x1="131.4424" x2="191.0449" y1="1923.6348" y2="1923.6348"/><path d="M159.2437,1923.6348 L159.2437,1920.6348 L165.2437,1923.6348 L159.2437,1926.6348 L159.2437,1923.6348 " fill="#181818" style="stroke:#181818;stroke-width:1.5;"/><path d="M203.0449,1911.6348 C203.0449,1920.6348 200.0449,1923.6348 191.0449,1923.6348 " fill="none" style="stroke:#181818;stroke-width:1.5;"/><rect fill="none" height="26.4883" style="stroke:#181818;stroke-width:0.5;" width="127.0449" x="64" y="1946.8789"/><text fill="#000000" font-family="sans-serif" font-size="14" lengthAdjust="spacing" textLength="117.0449" x="69" y="1965.4141">BackgroundColor</text><line style="stroke:#181818;stroke-width:1.5;" x1="191.0449" x2="191.0449" y1="1960.123" y2="1960.123"/><path d="M52,1948.123 C52,1957.123 55,1960.123 64,1960.123 " fill="none" style="stroke:#181818;stroke-width:1.5;"/><line style="stroke:#181818;stroke-width:1.5;" x1="52" x2="52" y1="1899.1465" y2="1948.123"/><path d="M40,1887.1465 C49,1887.1465 52,1890.1465 52,1899.1465 " fill="none" style="stroke:#181818;stroke-width:1.5;"/><path d="M203.0449,1948.123 C203.0449,1957.123 200.0449,1960.123 191.0449,1960.123 " fill="none" style="stroke:#181818;stroke-width:1.5;"/><line style="stroke:#181818;stroke-width:1.5;" x1="203.0449" x2="203.0449" y1="1899.1465" y2="1948.123"/><path d="M203.0449,1899.1465 C203.0449,1890.1465 206.0449,1887.1465 215.0449,1887.1465 " fill="none" style="stroke:#181818;stroke-width:1.5;"/><ellipse cx="14" cy="1887.1465" fill="none" rx="4" ry="4" style="stroke:#181818;stroke-width:2.0;"/><ellipse cx="245.0449" cy="1887.1465" fill="#181818" rx="4" ry="4" style="stroke:#181818;stroke-width:1.0;"/><line style="stroke:#181818;stroke-width:1.5;" x1="18" x2="40" y1="1887.1465" y2="1887.1465"/><line style="stroke:#181818;stroke-width:1.5;" x1="215.0449" x2="241.0449" y1="1887.1465" y2="1887.1465"/><path d="M226.0449,1887.1465 L226.0449,1884.1465 L232.0449,1887.1465 L226.0449,1890.1465 L226.0449,1887.1465 " fill="#181818" style="stroke:#181818;stroke-width:1.5;"/><!--SRC=[dLHHRzf037w_Ns7bgPLeLRfgL46eXK1H6L3Kf7sPfkb83BsHt4MN2ssc_lZT9Hb980_JdkBlR7_sPrkvJnIL2jTyGnALXRYI8aQf62Om8DOODpGDbTM1eB1gxa_gAo6J3do_yuRJdylXOdBtemCOOeIy4VWkvEvf_GjzzI_HraYaFA0oiuw3rwMZ4RqK2jlxiuQ-Odkc314jpORVLHXhNw8_rNkVa48O3C0m26d19rWhb8dWkJcL8erpoyrqRcJrIKsXIIlCF6Gi_DGepC6320Ci-1mQXhanYIWhB4VmlQv25IiBFVADqEJaLDl0S77bYB1ipw0bZV00NFQx1incS-JXXng6RCiFFOselzjACzcARIIaxhFAAl2nttjZ_evZakHlpmM5vAL0zuq6uftnhLPmkkL17X0Nz8- -u5Mn7FcqXWw5JmRH9oqtKUTkoI0jjz1ev_yckz23e5ji3hUWwPFcYRMlxy1xl17TyZto8ADHICWgf5ozBEPWJaKV2dGlhw-kRovxPovLu68CLpteVh6xjtQt1yx4zS3upydPT3M7HAJIHmXOeYHRf-RIpicCxYayfron26ruYf7Fnj_-Fi24xvaKkIGoUrrK0LzlBaRCb9Iw5NXTaF9deJDy4UZ5s_3YFLpSaZdbsrIFnjRR88xMfMHcmtZo1m00]--></g></svg>