<svg xmlns="http://www.w3.org/2000/svg" xmlns:xlink="http://www.w3.org/1999/xlink" contentStyleType="text/css" height="341px" preserveAspectRatio="none" style="width:1899px;height:341px;background:#FFFFFF;" version="1.1" viewBox="0 0 1899 341" width="1899px" zoomAndPan="magnify"><title>Style declarations</title><defs/><g><text fill="#000000" font-family="sans-serif" font-size="14" font-weight="bold" lengthAdjust="spacing" textLength="127.791" x="884.521" y="33.5352">Style declarations</text><rect fill="#F1F1F1" height="36.4883" rx="12.5" ry="12.5" style="stroke:#181818;stroke-width:1.5;" width="140.7705" x="878.5313" y="47.4883"/><text fill="#000000" font-family="sans-serif" font-size="14" lengthAdjust="spacing" textLength="120.7705" x="888.5313" y="71.0234">Style Declarations</text><rect fill="#F1F1F1" height="36.4883" rx="12.5" ry="12.5" style="stroke:#181818;stroke-width:1.5;" width="69.1367" x="914.3481" y="108.9766"/><text fill="#000000" font-family="sans-serif" font-size="14" lengthAdjust="spacing" textLength="49.1367" x="924.3481" y="132.5117">Default</text><rect fill="#F1F1F1" height="36.4883" rx="12.5" ry="12.5" style="stroke:#181818;stroke-width:1.5;" width="56.3945" x="279.6025" y="170.4648"/><text fill="#000000" font-family="sans-serif" font-size="14" lengthAdjust="spacing" textLength="36.3945" x="289.6025" y="194">Actor</text><rect fill="#F1F1F1" height="36.4883" rx="12.5" ry="12.5" style="stroke:#181818;stroke-width:1.5;" width="65.6914" x="57.6387" y="231.9531"/><text fill="#000000" font-family="sans-serif" font-size="14" lengthAdjust="spacing" textLength="45.6914" x="67.6387" y="255.4883">Person</text><rect fill="#F1F1F1" height="36.4883" rx="12.5" ry="12.5" style="stroke:#181818;stroke-width:1.5;" width="140.9688" x="20" y="293.4414"/><text fill="#000000" font-family="sans-serif" font-size="14" lengthAdjust="spacing" textLength="120.9688" x="30" y="316.9766">PersonTAG_NAME</text><path d="M90.4844,268.4414 L90.4844,271.4414 C90.4844,278.4414 90.4844,283.4414 90.4844,290.4414 L90.4844,293.4414 " fill="none" style="stroke:#181818;stroke-width:1.0;"/><path d="M307.7998,206.9531 L307.7998,209.9531 C307.7998,216.9531 90.4844,221.9531 90.4844,228.9531 L90.4844,231.9531 " fill="none" style="stroke:#181818;stroke-width:1.0;"/><rect fill="#F1F1F1" height="36.4883" rx="12.5" ry="12.5" style="stroke:#181818;stroke-width:1.5;" width="61.9453" x="218.6074" y="231.9531"/><text fill="#000000" font-family="sans-serif" font-size="14" lengthAdjust="spacing" textLength="41.9453" x="228.6074" y="255.4883">Group</text><rect fill="#F1F1F1" height="36.4883" rx="12.5" ry="12.5" style="stroke:#181818;stroke-width:1.5;" width="137.2227" x="180.9688" y="293.4414"/><text fill="#000000" font-family="sans-serif" font-size="14" lengthAdjust="spacing" textLength="117.2227" x="190.9688" y="316.9766">GroupTAG_NAME</text><path d="M249.5801,268.4414 L249.5801,271.4414 C249.5801,278.4414 249.5801,283.4414 249.5801,290.4414 L249.5801,293.4414 " fill="none" style="stroke:#181818;stroke-width:1.0;"/><path d="M307.7998,206.9531 L307.7998,209.9531 C307.7998,216.9531 249.5801,221.9531 249.5801,228.9531 L249.5801,231.9531 " fill="none" style="stroke:#181818;stroke-width:1.0;"/><rect fill="#F1F1F1" height="36.4883" rx="12.5" ry="12.5" style="stroke:#181818;stroke-width:1.5;" width="68.0977" x="375.8301" y="231.9531"/><text fill="#000000" font-family="sans-serif" font-size="14" lengthAdjust="spacing" textLength="48.0977" x="385.8301" y="255.4883">System</text><rect fill="#F1F1F1" height="36.4883" rx="12.5" ry="12.5" style="stroke:#181818;stroke-width:1.5;" width="143.375" x="338.1914" y="293.4414"/><text fill="#000000" font-family="sans-serif" font-size="14" lengthAdjust="spacing" textLength="123.375" x="348.1914" y="316.9766">SystemTAG_NAME</text><path d="M409.8789,268.4414 L409.8789,271.4414 C409.8789,278.4414 409.8789,283.4414 409.8789,290.4414 L409.8789,293.4414 " fill="none" style="stroke:#181818;stroke-width:1.0;"/><path d="M307.7998,206.9531 L307.7998,209.9531 C307.7998,216.9531 409.8789,221.9531 409.8789,228.9531 L409.8789,231.9531 " fill="none" style="stroke:#181818;stroke-width:1.0;"/><rect fill="#F1F1F1" height="36.4883" rx="12.5" ry="12.5" style="stroke:#181818;stroke-width:1.5;" width="131.6719" x="463.9277" y="231.9531"/><text fill="#000000" font-family="sans-serif" font-size="14" lengthAdjust="spacing" textLength="111.6719" x="473.9277" y="255.4883">ActorTAG_NAME</text><path d="M307.7998,206.9531 L307.7998,209.9531 C307.7998,216.9531 529.7637,221.9531 529.7637,228.9531 L529.7637,231.9531 " fill="none" style="stroke:#181818;stroke-width:1.0;"/><path d="M948.9165,145.4648 L948.9165,148.4648 C948.9165,155.4648 307.7998,160.4648 307.7998,167.4648 L307.7998,170.4648 " fill="none" style="stroke:#181818;stroke-width:1.0;"/><rect fill="#F1F1F1" height="36.4883" rx="12.5" ry="12.5" style="stroke:#181818;stroke-width:1.5;" width="64.1533" x="1125.1934" y="170.4648"/><text fill="#000000" font-family="sans-serif" font-size="14" lengthAdjust="spacing" textLength="44.1533" x="1135.1934" y="194">Object</text><rect fill="#F1F1F1" height="36.4883" rx="12.5" ry="12.5" style="stroke:#181818;stroke-width:1.5;" width="89.7402" x="653.2383" y="231.9531"/><text fill="#000000" font-family="sans-serif" font-size="14" lengthAdjust="spacing" textLength="69.7402" x="663.2383" y="255.4883">Document</text><rect fill="#F1F1F1" height="36.4883" rx="12.5" ry="12.5" style="stroke:#181818;stroke-width:1.5;" width="165.0176" x="615.5996" y="293.4414"/><text fill="#000000" font-family="sans-serif" font-size="14" lengthAdjust="spacing" textLength="145.0176" x="625.5996" y="316.9766">DocumentTAG_NAME</text><path d="M698.1084,268.4414 L698.1084,271.4414 C698.1084,278.4414 698.1084,283.4414 698.1084,290.4414 L698.1084,293.4414 " fill="none" style="stroke:#181818;stroke-width:1.0;"/><path d="M1157.27,206.9531 L1157.27,209.9531 C1157.27,216.9531 698.1084,221.9531 698.1084,228.9531 L698.1084,231.9531 " fill="none" style="stroke:#181818;stroke-width:1.0;"/><rect fill="#F1F1F1" height="36.4883" rx="12.5" ry="12.5" style="stroke:#181818;stroke-width:1.5;" width="62.4922" x="838.2559" y="231.9531"/><text fill="#000000" font-family="sans-serif" font-size="14" lengthAdjust="spacing" textLength="42.4922" x="848.2559" y="255.4883">Folder</text><rect fill="#F1F1F1" height="36.4883" rx="12.5" ry="12.5" style="stroke:#181818;stroke-width:1.5;" width="137.7695" x="800.6172" y="293.4414"/><text fill="#000000" font-family="sans-serif" font-size="14" lengthAdjust="spacing" textLength="117.7695" x="810.6172" y="316.9766">FolderTAG_NAME</text><path d="M869.502,268.4414 L869.502,271.4414 C869.502,278.4414 869.502,283.4414 869.502,290.4414 L869.502,293.4414 " fill="none" style="stroke:#181818;stroke-width:1.0;"/><path d="M1157.27,206.9531 L1157.27,209.9531 C1157.27,216.9531 869.502,221.9531 869.502,228.9531 L869.502,231.9531 " fill="none" style="stroke:#181818;stroke-width:1.0;"/><rect fill="#F1F1F1" height="36.4883" rx="12.5" ry="12.5" style="stroke:#181818;stroke-width:1.5;" width="45.5117" x="996.0254" y="231.9531"/><text fill="#000000" font-family="sans-serif" font-size="14" lengthAdjust="spacing" textLength="25.5117" x="1006.0254" y="255.4883">Call</text><rect fill="#F1F1F1" height="36.4883" rx="12.5" ry="12.5" style="stroke:#181818;stroke-width:1.5;" width="120.7891" x="958.3867" y="293.4414"/><text fill="#000000" font-family="sans-serif" font-size="14" lengthAdjust="spacing" textLength="100.7891" x="968.3867" y="316.9766">CallTAG_NAME</text><path d="M1018.7813,268.4414 L1018.7813,271.4414 C1018.7813,278.4414 1018.7813,283.4414 1018.7813,290.4414 L1018.7813,293.4414 " fill="none" style="stroke:#181818;stroke-width:1.0;"/><path d="M1157.27,206.9531 L1157.27,209.9531 C1157.27,216.9531 1018.7813,221.9531 1018.7813,228.9531 L1018.7813,231.9531 " fill="none" style="stroke:#181818;stroke-width:1.0;"/><rect fill="#F1F1F1" height="36.4883" rx="12.5" ry="12.5" style="stroke:#181818;stroke-width:1.5;" width="56.4834" x="1136.8145" y="231.9531"/><text fill="#000000" font-family="sans-serif" font-size="14" lengthAdjust="spacing" textLength="36.4834" x="1146.8145" y="255.4883">Email</text><rect fill="#F1F1F1" height="36.4883" rx="12.5" ry="12.5" style="stroke:#181818;stroke-width:1.5;" width="131.7607" x="1099.1758" y="293.4414"/><text fill="#000000" font-family="sans-serif" font-size="14" lengthAdjust="spacing" textLength="111.7607" x="1109.1758" y="316.9766">EmailTAG_NAME</text><path d="M1165.0562,268.4414 L1165.0562,271.4414 C1165.0562,278.4414 1165.0562,283.4414 1165.0562,290.4414 L1165.0562,293.4414 " fill="none" style="stroke:#181818;stroke-width:1.0;"/><path d="M1157.27,206.9531 L1157.27,209.9531 C1157.27,216.9531 1165.0562,221.9531 1165.0562,228.9531 L1165.0562,231.9531 " fill="none" style="stroke:#181818;stroke-width:1.0;"/><rect fill="#F1F1F1" height="36.4883" rx="12.5" ry="12.5" style="stroke:#181818;stroke-width:1.5;" width="109.1885" x="1288.5752" y="231.9531"/><text fill="#000000" font-family="sans-serif" font-size="14" lengthAdjust="spacing" textLength="89.1885" x="1298.5752" y="255.4883">Conversation</text><rect fill="#F1F1F1" height="36.4883" rx="12.5" ry="12.5" style="stroke:#181818;stroke-width:1.5;" width="184.4658" x="1250.9365" y="293.4414"/><text fill="#000000" font-family="sans-serif" font-size="14" lengthAdjust="spacing" textLength="164.4658" x="1260.9365" y="316.9766">ConversationTAG_NAME</text><path d="M1343.1694,268.4414 L1343.1694,271.4414 C1343.1694,278.4414 1343.1694,283.4414 1343.1694,290.4414 L1343.1694,293.4414 " fill="none" style="stroke:#181818;stroke-width:1.0;"/><path d="M1157.27,206.9531 L1157.27,209.9531 C1157.27,216.9531 1343.1694,221.9531 1343.1694,228.9531 L1343.1694,231.9531 " fill="none" style="stroke:#181818;stroke-width:1.0;"/><rect fill="#F1F1F1" height="36.4883" rx="12.5" ry="12.5" style="stroke:#181818;stroke-width:1.5;" width="46.4688" x="1493.041" y="231.9531"/><text fill="#000000" font-family="sans-serif" font-size="14" lengthAdjust="spacing" textLength="26.4688" x="1503.041" y="255.4883">Info</text><rect fill="#F1F1F1" height="36.4883" rx="12.5" ry="12.5" style="stroke:#181818;stroke-width:1.5;" width="121.7461" x="1455.4023" y="293.4414"/><text fill="#000000" font-family="sans-serif" font-size="14" lengthAdjust="spacing" textLength="101.7461" x="1465.4023" y="316.9766">InfoTAG_NAME</text><path d="M1516.2754,268.4414 L1516.2754,271.4414 C1516.2754,278.4414 1516.2754,283.4414 1516.2754,290.4414 L1516.2754,293.4414 " fill="none" style="stroke:#181818;stroke-width:1.0;"/><path d="M1157.27,206.9531 L1157.27,209.9531 C1157.27,216.9531 1516.2754,221.9531 1516.2754,228.9531 L1516.2754,231.9531 " fill="none" style="stroke:#181818;stroke-width:1.0;"/><rect fill="#F1F1F1" height="36.4883" rx="12.5" ry="12.5" style="stroke:#181818;stroke-width:1.5;" width="139.4307" x="1559.5098" y="231.9531"/><text fill="#000000" font-family="sans-serif" font-size="14" lengthAdjust="spacing" textLength="119.4307" x="1569.5098" y="255.4883">ObjectTAG_NAME</text><path d="M1157.27,206.9531 L1157.27,209.9531 C1157.27,216.9531 1629.2251,221.9531 1629.2251,228.9531 L1629.2251,231.9531 " fill="none" style="stroke:#181818;stroke-width:1.0;"/><path d="M948.9165,145.4648 L948.9165,148.4648 C948.9165,155.4648 1157.27,160.4648 1157.27,167.4648 L1157.27,170.4648 " fill="none" style="stroke:#181818;stroke-width:1.0;"/><rect fill="#F1F1F1" height="36.4883" rx="12.5" ry="12.5" style="stroke:#181818;stroke-width:1.5;" width="51.9785" x="1209.3467" y="170.4648"/><text fill="#000000" font-family="sans-serif" font-size="14" lengthAdjust="spacing" textLength="31.9785" x="1219.3467" y="194">Note</text><path d="M948.9165,145.4648 L948.9165,148.4648 C948.9165,155.4648 1235.3359,160.4648 1235.3359,167.4648 L1235.3359,170.4648 " fill="none" style="stroke:#181818;stroke-width:1.0;"/><rect fill="#F1F1F1" height="36.4883" rx="12.5" ry="12.5" style="stroke:#181818;stroke-width:1.5;" width="83.6152" x="1756.5791" y="170.4648"/><text fill="#000000" font-family="sans-serif" font-size="14" lengthAdjust="spacing" textLength="63.6152" x="1766.5791" y="194">Boundary</text><rect fill="#F1F1F1" height="36.4883" rx="12.5" ry="12.5" style="stroke:#181818;stroke-width:1.5;" width="158.8926" x="1718.9404" y="231.9531"/><text fill="#000000" font-family="sans-serif" font-size="14" lengthAdjust="spacing" textLength="138.8926" x="1728.9404" y="255.4883">BoundaryTAG_NAME</text><path d="M1798.3867,206.9531 L1798.3867,209.9531 C1798.3867,216.9531 1798.3867,221.9531 1798.3867,228.9531 L1798.3867,231.9531 " fill="none" style="stroke:#181818;stroke-width:1.0;"/><path d="M948.9165,145.4648 L948.9165,148.4648 C948.9165,155.4648 1798.3867,160.4648 1798.3867,167.4648 L1798.3867,170.4648 " fill="none" style="stroke:#181818;stroke-width:1.0;"/><path d="M948.9165,83.9766 L948.9165,86.9766 C948.9165,93.9766 948.9165,98.9766 948.9165,105.9766 L948.9165,108.9766 " fill="none" style="stroke:#181818;stroke-width:1.0;"/><rect fill="#F1F1F1" height="36.4883" rx="12.5" ry="12.5" style="stroke:#181818;stroke-width:1.5;" width="69.957" x="1003.4849" y="108.9766"/><text fill="#000000" font-family="sans-serif" font-size="14" lengthAdjust="spacing" textLength="49.957" x="1013.4849" y="132.5117">Activity</text><path d="M948.9165,83.9766 L948.9165,86.9766 C948.9165,93.9766 1038.4634,98.9766 1038.4634,105.9766 L1038.4634,108.9766 " fill="none" style="stroke:#181818;stroke-width:1.0;"/><rect fill="#F1F1F1" height="36.4883" rx="12.5" ry="12.5" style="stroke:#181818;stroke-width:1.5;" width="49.3877" x="1093.4419" y="108.9766"/><text fill="#000000" font-family="sans-serif" font-size="14" lengthAdjust="spacing" textLength="29.3877" x="1103.4419" y="132.5117">Step</text><path d="M948.9165,83.9766 L948.9165,86.9766 C948.9165,93.9766 1118.1357,98.9766 1118.1357,105.9766 L1118.1357,108.9766 " fill="none" style="stroke:#181818;stroke-width:1.0;"/><!--SRC=[xLBBRi8m4BpxA_PMY0G2YWhAYLT0fGHG0rmhanZaAh4ZPuEKlw-TE6fIzG_QIpIpCrxlEZFBa2fCk8WIcXAKAQ24gqIK2KHSiH2v58GWnvX1W8N-HYoCgQ96o0XnR7NLh3gEvZUQnwYX0_CGfJB8WIDJcMxeDCXflldOptslCcoKp5EhbxWj1qM6BB5wHTg6ygvc2GxNJxr6fQvac2TCe6rGqtQBjOmZfgob8ct3aiQnbGriYrv2UQsM-CTPAHvwxVAXwXwDKjlyAcxIcWniYzLUhLNt4ba95Z8N4LL5vQnPmslUYJyu5kJ9QR2c8q2MaXdJoR3f8BF_iFpniFmQYsDC1Pxz7PZ1z5Wmx8y6et5_qWaeGi1I64nW-EmEf-vm0ailE87HkwIpEUuWaxaATL1uXefVSxDNbspfWy9xBf0dp8L3oiHszLONm1CFhgGe_ytsudyRNiQz1JTNAZqAN7nYWwLFX3BYukx2-RJkJScEYdjExxftnCXIRuogS67bVG40]--></g></svg>