<svg xmlns="http://www.w3.org/2000/svg" xmlns:xlink="http://www.w3.org/1999/xlink" contentStyleType="text/css" height="279px" preserveAspectRatio="none" style="width:825px;height:279px;background:#FFFFFF;" version="1.1" viewBox="0 0 825 279" width="825px" zoomAndPan="magnify"><title>Style declarations</title><defs/><g><text fill="#000000" font-family="sans-serif" font-size="14" font-weight="bold" lengthAdjust="spacing" textLength="142.8916" x="339.5557" y="32.9951">Style declarations</text><rect fill="#F1F1F1" height="36.2969" rx="12.5" ry="12.5" style="stroke:#181818;stroke-width:1.5;" width="147.6201" x="337.6914" y="47.2969"/><text fill="#000000" font-family="sans-serif" font-size="14" lengthAdjust="spacing" textLength="127.6201" x="347.6914" y="70.292">Style Declarations</text><rect fill="#F1F1F1" height="36.2969" rx="12.5" ry="12.5" style="stroke:#181818;stroke-width:1.5;" width="77.9619" x="372.5205" y="108.5938"/><text fill="#000000" font-family="sans-serif" font-size="14" lengthAdjust="spacing" textLength="57.9619" x="382.5205" y="131.5889">Element</text><rect fill="#F1F1F1" height="36.2969" rx="12.5" ry="12.5" style="stroke:#181818;stroke-width:1.5;" width="57.085" x="112.7974" y="169.8906"/><text fill="#000000" font-family="sans-serif" font-size="14" lengthAdjust="spacing" textLength="37.085" x="122.7974" y="192.8857">Actor</text><rect fill="#F1F1F1" height="36.2969" rx="12.5" ry="12.5" style="stroke:#181818;stroke-width:1.5;" width="67.5439" x="20" y="231.1875"/><text fill="#000000" font-family="sans-serif" font-size="14" lengthAdjust="spacing" textLength="47.5439" x="30" y="254.1826">Person</text><path d="M141.3398,206.1875 L141.3398,209.1875 C141.3398,216.1875 53.772,221.1875 53.772,228.1875 L53.772,231.1875 " fill="none" style="stroke:#181818;stroke-width:1;"/><rect fill="#F1F1F1" height="36.2969" rx="12.5" ry="12.5" style="stroke:#181818;stroke-width:1.5;" width="62.9297" x="107.5439" y="231.1875"/><text fill="#000000" font-family="sans-serif" font-size="14" lengthAdjust="spacing" textLength="42.9297" x="117.5439" y="254.1826">Group</text><path d="M141.3398,206.1875 L141.3398,209.1875 C141.3398,216.1875 139.0088,221.1875 139.0088,228.1875 L139.0088,231.1875 " fill="none" style="stroke:#181818;stroke-width:1;"/><rect fill="#F1F1F1" height="36.2969" rx="12.5" ry="12.5" style="stroke:#181818;stroke-width:1.5;" width="72.2061" x="190.4736" y="231.1875"/><text fill="#000000" font-family="sans-serif" font-size="14" lengthAdjust="spacing" textLength="52.2061" x="200.4736" y="254.1826">System</text><path d="M141.3398,206.1875 L141.3398,209.1875 C141.3398,216.1875 226.5767,221.1875 226.5767,228.1875 L226.5767,231.1875 " fill="none" style="stroke:#181818;stroke-width:1;"/><path d="M411.5015,144.8906 L411.5015,147.8906 C411.5015,154.8906 141.3398,159.8906 141.3398,166.8906 L141.3398,169.8906 " fill="none" style="stroke:#181818;stroke-width:1;"/><rect fill="#F1F1F1" height="36.2969" rx="12.5" ry="12.5" style="stroke:#181818;stroke-width:1.5;" width="65.5957" x="510.0435" y="169.8906"/><text fill="#000000" font-family="sans-serif" font-size="14" lengthAdjust="spacing" textLength="45.5957" x="520.0435" y="192.8857">Object</text><rect fill="#F1F1F1" height="36.2969" rx="12.5" ry="12.5" style="stroke:#181818;stroke-width:1.5;" width="92.5293" x="282.6797" y="231.1875"/><text fill="#000000" font-family="sans-serif" font-size="14" lengthAdjust="spacing" textLength="72.5293" x="292.6797" y="254.1826">Document</text><path d="M542.8413,206.1875 L542.8413,209.1875 C542.8413,216.1875 328.9443,221.1875 328.9443,228.1875 L328.9443,231.1875 " fill="none" style="stroke:#181818;stroke-width:1;"/><rect fill="#F1F1F1" height="36.2969" rx="12.5" ry="12.5" style="stroke:#181818;stroke-width:1.5;" width="63.7637" x="395.209" y="231.1875"/><text fill="#000000" font-family="sans-serif" font-size="14" lengthAdjust="spacing" textLength="43.7637" x="405.209" y="254.1826">Folder</text><path d="M542.8413,206.1875 L542.8413,209.1875 C542.8413,216.1875 427.0908,221.1875 427.0908,228.1875 L427.0908,231.1875 " fill="none" style="stroke:#181818;stroke-width:1;"/><rect fill="#F1F1F1" height="36.2969" rx="12.5" ry="12.5" style="stroke:#181818;stroke-width:1.5;" width="46.1338" x="478.9727" y="231.1875"/><text fill="#000000" font-family="sans-serif" font-size="14" lengthAdjust="spacing" textLength="26.1338" x="488.9727" y="254.1826">Call</text><path d="M542.8413,206.1875 L542.8413,209.1875 C542.8413,216.1875 502.0396,221.1875 502.0396,228.1875 L502.0396,231.1875 " fill="none" style="stroke:#181818;stroke-width:1;"/><rect fill="#F1F1F1" height="36.2969" rx="12.5" ry="12.5" style="stroke:#181818;stroke-width:1.5;" width="58.8418" x="545.1064" y="231.1875"/><text fill="#000000" font-family="sans-serif" font-size="14" lengthAdjust="spacing" textLength="38.8418" x="555.1064" y="254.1826">Email</text><path d="M542.8413,206.1875 L542.8413,209.1875 C542.8413,216.1875 574.5273,221.1875 574.5273,228.1875 L574.5273,231.1875 " fill="none" style="stroke:#181818;stroke-width:1;"/><rect fill="#F1F1F1" height="36.2969" rx="12.5" ry="12.5" style="stroke:#181818;stroke-width:1.5;" width="112.5586" x="623.9482" y="231.1875"/><text fill="#000000" font-family="sans-serif" font-size="14" lengthAdjust="spacing" textLength="92.5586" x="633.9482" y="254.1826">Conversation</text><path d="M542.8413,206.1875 L542.8413,209.1875 C542.8413,216.1875 680.2275,221.1875 680.2275,228.1875 L680.2275,231.1875 " fill="none" style="stroke:#181818;stroke-width:1;"/><rect fill="#F1F1F1" height="36.2969" rx="12.5" ry="12.5" style="stroke:#181818;stroke-width:1.5;" width="46.4961" x="756.5068" y="231.1875"/><text fill="#000000" font-family="sans-serif" font-size="14" lengthAdjust="spacing" textLength="26.4961" x="766.5068" y="254.1826">Info</text><path d="M542.8413,206.1875 L542.8413,209.1875 C542.8413,216.1875 779.7549,221.1875 779.7549,228.1875 L779.7549,231.1875 " fill="none" style="stroke:#181818;stroke-width:1;"/><path d="M411.5015,144.8906 L411.5015,147.8906 C411.5015,154.8906 542.8413,159.8906 542.8413,166.8906 L542.8413,169.8906 " fill="none" style="stroke:#181818;stroke-width:1;"/><rect fill="#F1F1F1" height="36.2969" rx="12.5" ry="12.5" style="stroke:#181818;stroke-width:1.5;" width="53.1406" x="595.6392" y="169.8906"/><text fill="#000000" font-family="sans-serif" font-size="14" lengthAdjust="spacing" textLength="33.1406" x="605.6392" y="192.8857">Note</text><path d="M411.5015,144.8906 L411.5015,147.8906 C411.5015,154.8906 622.2095,159.8906 622.2095,166.8906 L622.2095,169.8906 " fill="none" style="stroke:#181818;stroke-width:1;"/><rect fill="#F1F1F1" height="36.2969" rx="12.5" ry="12.5" style="stroke:#181818;stroke-width:1.5;" width="87.4229" x="668.7798" y="169.8906"/><text fill="#000000" font-family="sans-serif" font-size="14" lengthAdjust="spacing" textLength="67.4229" x="678.7798" y="192.8857">Boundary</text><path d="M411.5015,144.8906 L411.5015,147.8906 C411.5015,154.8906 712.4912,159.8906 712.4912,166.8906 L712.4912,169.8906 " fill="none" style="stroke:#181818;stroke-width:1;"/><path d="M411.5015,83.5938 L411.5015,86.5938 C411.5015,93.5938 411.5015,98.5938 411.5015,105.5938 L411.5015,108.5938 " fill="none" style="stroke:#181818;stroke-width:1;"/><rect fill="#F1F1F1" height="36.2969" rx="12.5" ry="12.5" style="stroke:#181818;stroke-width:1.5;" width="72.6025" x="470.4824" y="108.5938"/><text fill="#000000" font-family="sans-serif" font-size="14" lengthAdjust="spacing" textLength="52.6025" x="480.4824" y="131.5889">Activity</text><path d="M411.5015,83.5938 L411.5015,86.5938 C411.5015,93.5938 506.7837,98.5938 506.7837,105.5938 L506.7837,108.5938 " fill="none" style="stroke:#181818;stroke-width:1;"/><rect fill="#F1F1F1" height="36.2969" rx="12.5" ry="12.5" style="stroke:#181818;stroke-width:1.5;" width="51.876" x="563.085" y="108.5938"/><text fill="#000000" font-family="sans-serif" font-size="14" lengthAdjust="spacing" textLength="31.876" x="573.085" y="131.5889">Step</text><path d="M411.5015,83.5938 L411.5015,86.5938 C411.5015,93.5938 589.0229,98.5938 589.0229,105.5938 L589.0229,108.5938 " fill="none" style="stroke:#181818;stroke-width:1;"/><!--SRC=[JP1DRy8m38Rl-HK-GYNGG1r2d1XjGMCmq0hSGsjGfZIkKgTI__tIZscxH8zU9qzihokMbWjbyaAMWga49hWJCnMGAuiPAp92i6ADa7BZpnmpBQri2vKGmP36_zCWW4HZWOOz1l2MCTcM0ZYZhRomuvqbL_QODXLZqLq-tR_zhtqSK-P-BG5iIUSuU2AfTKz98TM04PdQ-xic-kJTFAYpVX9Z1njo9fUs4NrVgbRSSSfOYZNwFGox46Sj3L-F1sYTtWYpwVnb7awNewrLNbZ3x1LcorKOhi85HCa5sl9OZ7Rd0rJaREPtfIgswkxQZiPYBsi9NywmAd05fnBDFlxu3I0njR9akddtj-FVXKKusIY65Atl16v74UD3Eit-HKQvCiyLN2_RoL8Sf7aw-VHkD2BoWx9jV2tz0G00]--></g></svg>