<svg xmlns="http://www.w3.org/2000/svg" xmlns:xlink="http://www.w3.org/1999/xlink" contentStyleType="text/css" height="280px" preserveAspectRatio="none" style="width:807px;height:280px;background:#FFFFFF;" version="1.1" viewBox="0 0 807 280" width="807px" zoomAndPan="magnify"><title>Style declarations</title><defs/><g><text fill="#000000" font-family="sans-serif" font-size="14" font-weight="bold" lengthAdjust="spacing" textLength="127.791" x="338.4141" y="33.5352">Style declarations</text><rect fill="#F1F1F1" height="36.4883" rx="12.5" ry="12.5" style="stroke:#181818;stroke-width:1.5;" width="140.7705" x="332.4243" y="47.4883"/><text fill="#000000" font-family="sans-serif" font-size="14" lengthAdjust="spacing" textLength="120.7705" x="342.4243" y="71.0234">Style Declarations</text><rect fill="#F1F1F1" height="36.4883" rx="12.5" ry="12.5" style="stroke:#181818;stroke-width:1.5;" width="69.1367" x="368.2412" y="108.9766"/><text fill="#000000" font-family="sans-serif" font-size="14" lengthAdjust="spacing" textLength="49.1367" x="378.2412" y="132.5117">Default</text><rect fill="#F1F1F1" height="36.4883" rx="12.5" ry="12.5" style="stroke:#181818;stroke-width:1.5;" width="56.3945" x="109.6699" y="170.4648"/><text fill="#000000" font-family="sans-serif" font-size="14" lengthAdjust="spacing" textLength="36.3945" x="119.6699" y="194">Actor</text><rect fill="#F1F1F1" height="36.4883" rx="12.5" ry="12.5" style="stroke:#181818;stroke-width:1.5;" width="65.6914" x="20" y="231.9531"/><text fill="#000000" font-family="sans-serif" font-size="14" lengthAdjust="spacing" textLength="45.6914" x="30" y="255.4883">Person</text><path d="M137.8672,206.9531 L137.8672,209.9531 C137.8672,216.9531 52.8457,221.9531 52.8457,228.9531 L52.8457,231.9531 " fill="none" style="stroke:#181818;stroke-width:1.0;"/><rect fill="#F1F1F1" height="36.4883" rx="12.5" ry="12.5" style="stroke:#181818;stroke-width:1.5;" width="61.9453" x="105.6914" y="231.9531"/><text fill="#000000" font-family="sans-serif" font-size="14" lengthAdjust="spacing" textLength="41.9453" x="115.6914" y="255.4883">Group</text><path d="M137.8672,206.9531 L137.8672,209.9531 C137.8672,216.9531 136.6641,221.9531 136.6641,228.9531 L136.6641,231.9531 " fill="none" style="stroke:#181818;stroke-width:1.0;"/><rect fill="#F1F1F1" height="36.4883" rx="12.5" ry="12.5" style="stroke:#181818;stroke-width:1.5;" width="68.0977" x="187.6367" y="231.9531"/><text fill="#000000" font-family="sans-serif" font-size="14" lengthAdjust="spacing" textLength="48.0977" x="197.6367" y="255.4883">System</text><path d="M137.8672,206.9531 L137.8672,209.9531 C137.8672,216.9531 221.6855,221.9531 221.6855,228.9531 L221.6855,231.9531 " fill="none" style="stroke:#181818;stroke-width:1.0;"/><path d="M402.8096,145.4648 L402.8096,148.4648 C402.8096,155.4648 137.8672,160.4648 137.8672,167.4648 L137.8672,170.4648 " fill="none" style="stroke:#181818;stroke-width:1.0;"/><rect fill="#F1F1F1" height="36.4883" rx="12.5" ry="12.5" style="stroke:#181818;stroke-width:1.5;" width="64.1533" x="498.6001" y="170.4648"/><text fill="#000000" font-family="sans-serif" font-size="14" lengthAdjust="spacing" textLength="44.1533" x="508.6001" y="194">Object</text><rect fill="#F1F1F1" height="36.4883" rx="12.5" ry="12.5" style="stroke:#181818;stroke-width:1.5;" width="89.7402" x="275.7344" y="231.9531"/><text fill="#000000" font-family="sans-serif" font-size="14" lengthAdjust="spacing" textLength="69.7402" x="285.7344" y="255.4883">Document</text><path d="M530.6768,206.9531 L530.6768,209.9531 C530.6768,216.9531 320.6045,221.9531 320.6045,228.9531 L320.6045,231.9531 " fill="none" style="stroke:#181818;stroke-width:1.0;"/><rect fill="#F1F1F1" height="36.4883" rx="12.5" ry="12.5" style="stroke:#181818;stroke-width:1.5;" width="62.4922" x="385.4746" y="231.9531"/><text fill="#000000" font-family="sans-serif" font-size="14" lengthAdjust="spacing" textLength="42.4922" x="395.4746" y="255.4883">Folder</text><path d="M530.6768,206.9531 L530.6768,209.9531 C530.6768,216.9531 416.7207,221.9531 416.7207,228.9531 L416.7207,231.9531 " fill="none" style="stroke:#181818;stroke-width:1.0;"/><rect fill="#F1F1F1" height="36.4883" rx="12.5" ry="12.5" style="stroke:#181818;stroke-width:1.5;" width="45.5117" x="467.9668" y="231.9531"/><text fill="#000000" font-family="sans-serif" font-size="14" lengthAdjust="spacing" textLength="25.5117" x="477.9668" y="255.4883">Call</text><path d="M530.6768,206.9531 L530.6768,209.9531 C530.6768,216.9531 490.7227,221.9531 490.7227,228.9531 L490.7227,231.9531 " fill="none" style="stroke:#181818;stroke-width:1.0;"/><rect fill="#F1F1F1" height="36.4883" rx="12.5" ry="12.5" style="stroke:#181818;stroke-width:1.5;" width="56.4834" x="533.4785" y="231.9531"/><text fill="#000000" font-family="sans-serif" font-size="14" lengthAdjust="spacing" textLength="36.4834" x="543.4785" y="255.4883">Email</text><path d="M530.6768,206.9531 L530.6768,209.9531 C530.6768,216.9531 561.7202,221.9531 561.7202,228.9531 L561.7202,231.9531 " fill="none" style="stroke:#181818;stroke-width:1.0;"/><rect fill="#F1F1F1" height="36.4883" rx="12.5" ry="12.5" style="stroke:#181818;stroke-width:1.5;" width="109.1885" x="609.9619" y="231.9531"/><text fill="#000000" font-family="sans-serif" font-size="14" lengthAdjust="spacing" textLength="89.1885" x="619.9619" y="255.4883">Conversation</text><path d="M530.6768,206.9531 L530.6768,209.9531 C530.6768,216.9531 664.5562,221.9531 664.5562,228.9531 L664.5562,231.9531 " fill="none" style="stroke:#181818;stroke-width:1.0;"/><rect fill="#F1F1F1" height="36.4883" rx="12.5" ry="12.5" style="stroke:#181818;stroke-width:1.5;" width="46.4688" x="739.1504" y="231.9531"/><text fill="#000000" font-family="sans-serif" font-size="14" lengthAdjust="spacing" textLength="26.4688" x="749.1504" y="255.4883">Info</text><path d="M530.6768,206.9531 L530.6768,209.9531 C530.6768,216.9531 762.3848,221.9531 762.3848,228.9531 L762.3848,231.9531 " fill="none" style="stroke:#181818;stroke-width:1.0;"/><path d="M402.8096,145.4648 L402.8096,148.4648 C402.8096,155.4648 530.6768,160.4648 530.6768,167.4648 L530.6768,170.4648 " fill="none" style="stroke:#181818;stroke-width:1.0;"/><rect fill="#F1F1F1" height="36.4883" rx="12.5" ry="12.5" style="stroke:#181818;stroke-width:1.5;" width="51.9785" x="582.7534" y="170.4648"/><text fill="#000000" font-family="sans-serif" font-size="14" lengthAdjust="spacing" textLength="31.9785" x="592.7534" y="194">Note</text><path d="M402.8096,145.4648 L402.8096,148.4648 C402.8096,155.4648 608.7427,160.4648 608.7427,167.4648 L608.7427,170.4648 " fill="none" style="stroke:#181818;stroke-width:1.0;"/><rect fill="#F1F1F1" height="36.4883" rx="12.5" ry="12.5" style="stroke:#181818;stroke-width:1.5;" width="83.6152" x="654.7319" y="170.4648"/><text fill="#000000" font-family="sans-serif" font-size="14" lengthAdjust="spacing" textLength="63.6152" x="664.7319" y="194">Boundary</text><path d="M402.8096,145.4648 L402.8096,148.4648 C402.8096,155.4648 696.5396,160.4648 696.5396,167.4648 L696.5396,170.4648 " fill="none" style="stroke:#181818;stroke-width:1.0;"/><path d="M402.8096,83.9766 L402.8096,86.9766 C402.8096,93.9766 402.8096,98.9766 402.8096,105.9766 L402.8096,108.9766 " fill="none" style="stroke:#181818;stroke-width:1.0;"/><rect fill="#F1F1F1" height="36.4883" rx="12.5" ry="12.5" style="stroke:#181818;stroke-width:1.5;" width="69.957" x="457.3779" y="108.9766"/><text fill="#000000" font-family="sans-serif" font-size="14" lengthAdjust="spacing" textLength="49.957" x="467.3779" y="132.5117">Activity</text><path d="M402.8096,83.9766 L402.8096,86.9766 C402.8096,93.9766 492.3564,98.9766 492.3564,105.9766 L492.3564,108.9766 " fill="none" style="stroke:#181818;stroke-width:1.0;"/><rect fill="#F1F1F1" height="36.4883" rx="12.5" ry="12.5" style="stroke:#181818;stroke-width:1.5;" width="49.3877" x="547.335" y="108.9766"/><text fill="#000000" font-family="sans-serif" font-size="14" lengthAdjust="spacing" textLength="29.3877" x="557.335" y="132.5117">Step</text><path d="M402.8096,83.9766 L402.8096,86.9766 C402.8096,93.9766 572.0288,98.9766 572.0288,105.9766 L572.0288,108.9766 " fill="none" style="stroke:#181818;stroke-width:1.0;"/><!--SRC=[JL31Ri8m3BtdAto4IY3Aq40zCTg2nc2W5RY79g1CRLobJgN-_TAqqtQ9df-Tv-UtheaRAfKM9QyOOGM4S4SYB44e8tDIg1aZHOM4Z5ht2faNtF2kKJCM36podmq2Lp-uBSZ10DvoGjEX0CxIr4xGuvr1M_KmQskIfHy-tR_TrfvECBUbr4ErnKB8GIVcHT6ZjEHgW37gnkbx4ptphX_eLJ-Hf0SRj5fmqxBUbseKUPoHhDXQkXo6BDYvu9gknmDqcauHmkbyDbzCbwEC4sIoWjaImfSeN4NX4k8qkq3N7xFHxdo06gt9NLYg9gFkjhCqPdlUSFYocbGf8pXLKk-JZry2KjqeWzeVlByT_mPU5vEDwbOQPmLkHpQ4wtxaA9H-Hd2zR2ShTk3wQVdJQGl9OdSfcJQ29Fq1]--></g></svg>